{
	"asset":{
		"generator":"Khronos glTF Blender I/O v4.3.47",
		"version":"2.0"
	},
	"scene":0,
	"scenes":[
		{
			"name":"Scene",
			"nodes":[
				0
			]
		}
	],
	"nodes":[
		{
			"mesh":0,
			"name":"Peacemaker_Holster",
			"scale":[
				0.949999988079071,
				0.949999988079071,
				0.9499999284744263
			]
		}
	],
	"materials":[
		{
			"doubleSided":true,
			"name":"Peacemaker",
			"normalTexture":{
				"index":0
			},
			"pbrMetallicRoughness":{
				"baseColorTexture":{
					"index":1
				},
				"metallicFactor":0.6324110627174377,
				"roughnessFactor":0.5
			}
		},
		{
			"doubleSided":true,
			"name":"Glass",
			"normalTexture":{
				"index":2
			},
			"pbrMetallicRoughness":{
				"baseColorTexture":{
					"index":3
				},
				"metallicFactor":0,
				"roughnessFactor":0.5
			}
		}
	],
	"meshes":[
		{
			"name":"Sword_Holster_11",
			"primitives":[
				{
					"attributes":{
						"POSITION":0,
						"NORMAL":1,
						"TEXCOORD_0":2,
						"COLOR_0":3,
						"COLOR_1":4
					},
					"indices":5,
					"material":0
				},
				{
					"attributes":{
						"POSITION":6,
						"NORMAL":7,
						"TEXCOORD_0":8,
						"COLOR_0":9,
						"COLOR_1":10
					},
					"indices":11,
					"material":1
				}
			]
		}
	],
	"textures":[
		{
			"sampler":0,
			"source":0
		},
		{
			"sampler":0,
			"source":1
		},
		{
			"sampler":0,
			"source":2
		},
		{
			"sampler":0,
			"source":3
		}
	],
	"images":[
		{
			"mimeType":"image/png",
			"name":"T_Peacemaker_Normal",
			"uri":"T_Peacemaker_Normal.png"
		},
		{
			"mimeType":"image/png",
			"name":"T_Peacemaker_BaseColor",
			"uri":"T_Peacemaker_BaseColor.png"
		},
		{
			"mimeType":"image/png",
			"name":"T_Glass_Normal",
			"uri":"T_Glass_Normal.png"
		},
		{
			"mimeType":"image/png",
			"name":"T_Glass_BaseColor",
			"uri":"T_Glass_BaseColor.png"
		}
	],
	"accessors":[
		{
			"bufferView":0,
			"componentType":5126,
			"count":3912,
			"max":[
				0.027329210191965103,
				0.17546208202838898,
				0.8390615582466125
			],
			"min":[
				-0.02342541143298149,
				-0.08022190630435944,
				-0.34302788972854614
			],
			"type":"VEC3"
		},
		{
			"bufferView":1,
			"componentType":5126,
			"count":3912,
			"type":"VEC3"
		},
		{
			"bufferView":2,
			"componentType":5126,
			"count":3912,
			"type":"VEC2"
		},
		{
			"bufferView":3,
			"componentType":5121,
			"count":3912,
			"normalized":true,
			"type":"VEC4"
		},
		{
			"bufferView":4,
			"componentType":5123,
			"count":3912,
			"normalized":true,
			"type":"VEC4"
		},
		{
			"bufferView":5,
			"componentType":5123,
			"count":15372,
			"type":"SCALAR"
		},
		{
			"bufferView":6,
			"componentType":5126,
			"count":224,
			"max":[
				0.02167632058262825,
				0.042296841740608215,
				-0.03343573212623596
			],
			"min":[
				-0.017772521823644638,
				0.005303042009472847,
				-0.2931891083717346
			],
			"type":"VEC3"
		},
		{
			"bufferView":7,
			"componentType":5126,
			"count":224,
			"type":"VEC3"
		},
		{
			"bufferView":8,
			"componentType":5126,
			"count":224,
			"type":"VEC2"
		},
		{
			"bufferView":9,
			"componentType":5121,
			"count":224,
			"normalized":true,
			"type":"VEC4"
		},
		{
			"bufferView":10,
			"componentType":5123,
			"count":224,
			"normalized":true,
			"type":"VEC4"
		},
		{
			"bufferView":11,
			"componentType":5123,
			"count":744,
			"type":"SCALAR"
		}
	],
	"bufferViews":[
		{
			"buffer":0,
			"byteLength":46944,
			"byteOffset":0,
			"target":34962
		},
		{
			"buffer":0,
			"byteLength":46944,
			"byteOffset":46944,
			"target":34962
		},
		{
			"buffer":0,
			"byteLength":31296,
			"byteOffset":93888,
			"target":34962
		},
		{
			"buffer":0,
			"byteLength":15648,
			"byteOffset":125184,
			"target":34962
		},
		{
			"buffer":0,
			"byteLength":31296,
			"byteOffset":140832,
			"target":34962
		},
		{
			"buffer":0,
			"byteLength":30744,
			"byteOffset":172128,
			"target":34963
		},
		{
			"buffer":0,
			"byteLength":2688,
			"byteOffset":202872,
			"target":34962
		},
		{
			"buffer":0,
			"byteLength":2688,
			"byteOffset":205560,
			"target":34962
		},
		{
			"buffer":0,
			"byteLength":1792,
			"byteOffset":208248,
			"target":34962
		},
		{
			"buffer":0,
			"byteLength":896,
			"byteOffset":210040,
			"target":34962
		},
		{
			"buffer":0,
			"byteLength":1792,
			"byteOffset":210936,
			"target":34962
		},
		{
			"buffer":0,
			"byteLength":1488,
			"byteOffset":212728,
			"target":34963
		}
	],
	"samplers":[
		{
			"magFilter":9729,
			"minFilter":9987
		}
	],
	"buffers":[
		{
			"byteLength":214216,
			"uri":"sheath_p.bin"
		}
	]
}
