{
	"asset":{
		"generator":"Khronos glTF Blender I/O v4.3.47",
		"version":"2.0"
	},
	"extensionsUsed":[
		"KHR_texture_transform"
	],
	"extensionsRequired":[
		"KHR_texture_transform"
	],
	"scene":0,
	"scenes":[
		{
			"name":"Scene",
			"nodes":[
				0,
				1,
				2,
				3,
				4,
				5,
				6,
				7,
				8,
				9,
				10
			]
		}
	],
	"nodes":[
		{
			"mesh":0,
			"name":"SM_BP_WallCon_8x6"
		},
		{
			"mesh":1,
			"name":"SM_BP_WallCon_8x7"
		},
		{
			"mesh":2,
			"name":"SM_Floors_Plain_29"
		},
		{
			"mesh":3,
			"name":"SM_Floors_Plain_30"
		},
		{
			"mesh":4,
			"name":"SM_Wall_Inside_29"
		},
		{
			"mesh":5,
			"name":"SM_BW_BrickWall4m13"
		},
		{
			"mesh":6,
			"name":"SM_Floors_Thick_132"
		},
		{
			"mesh":7,
			"name":"SM_Floors_Thick_133"
		},
		{
			"mesh":8,
			"name":"SM_electricitybox3"
		},
		{
			"mesh":9,
			"name":"SM_electricitybox2"
		},
		{
			"mesh":10,
			"name":"SM_electricitybox1"
		}
	],
	"materials":[
		{
			"doubleSided":true,
			"name":"MI_Tileable_Exterior",
			"normalTexture":{
				"index":0
			},
			"occlusionTexture":{
				"index":1
			},
			"pbrMetallicRoughness":{
				"baseColorTexture":{
					"index":2
				},
				"metallicRoughnessTexture":{
					"index":1
				}
			}
		},
		{
			"doubleSided":true,
			"name":"M_ConcreteGrunge_SM_Floors_Plain_29",
			"normalTexture":{
				"index":3
			},
			"occlusionTexture":{
				"index":4
			},
			"pbrMetallicRoughness":{
				"baseColorTexture":{
					"extensions":{
						"KHR_texture_transform":{
							"offset":[
								-0.008198438212275505,
								-0.008198433555662632
							],
							"scale":[
								1.0166373252868652,
								1.0166373252868652
							]
						}
					},
					"index":5
				},
				"metallicRoughnessTexture":{
					"extensions":{
						"KHR_texture_transform":{
							"offset":[
								-0.008198438212275505,
								-0.008198433555662632
							],
							"scale":[
								1.0166373252868652,
								1.0166373252868652
							]
						}
					},
					"index":4
				}
			}
		},
		{
			"doubleSided":true,
			"name":"M_ConcreteGrunge_SM_Floors_Plain_30",
			"normalTexture":{
				"index":6
			},
			"occlusionTexture":{
				"index":7
			},
			"pbrMetallicRoughness":{
				"baseColorTexture":{
					"extensions":{
						"KHR_texture_transform":{
							"offset":[
								-0.008198438212275505,
								-0.008198433555662632
							],
							"scale":[
								1.0166373252868652,
								1.0166373252868652
							]
						}
					},
					"index":8
				},
				"metallicRoughnessTexture":{
					"extensions":{
						"KHR_texture_transform":{
							"offset":[
								-0.008198438212275505,
								-0.008198433555662632
							],
							"scale":[
								1.0166373252868652,
								1.0166373252868652
							]
						}
					},
					"index":7
				}
			}
		},
		{
			"doubleSided":true,
			"name":"MI_Drywall",
			"normalTexture":{
				"index":9
			},
			"occlusionTexture":{
				"index":10
			},
			"pbrMetallicRoughness":{
				"baseColorTexture":{
					"index":11
				},
				"metallicRoughnessTexture":{
					"index":10
				}
			}
		},
		{
			"doubleSided":true,
			"name":"MI_Brick_Wall",
			"normalTexture":{
				"index":12
			},
			"occlusionTexture":{
				"index":13
			},
			"pbrMetallicRoughness":{
				"baseColorTexture":{
					"index":14
				},
				"metallicRoughnessTexture":{
					"index":13
				}
			}
		},
		{
			"doubleSided":true,
			"name":"M_ConcreteGrunge_SM_Floors_Thick_132",
			"normalTexture":{
				"index":15
			},
			"occlusionTexture":{
				"index":16
			},
			"pbrMetallicRoughness":{
				"baseColorTexture":{
					"extensions":{
						"KHR_texture_transform":{
							"offset":[
								-0.008206585422158241,
								-0.014086008071899414
							],
							"scale":[
								1.017647624015808,
								1.746718406677246
							]
						}
					},
					"index":17
				},
				"metallicRoughnessTexture":{
					"extensions":{
						"KHR_texture_transform":{
							"offset":[
								-0.008206585422158241,
								-0.014086008071899414
							],
							"scale":[
								1.017647624015808,
								1.746718406677246
							]
						}
					},
					"index":16
				}
			}
		},
		{
			"doubleSided":true,
			"name":"M_ConcreteGrunge_SM_Floors_Thick_133",
			"normalTexture":{
				"index":18
			},
			"occlusionTexture":{
				"index":19
			},
			"pbrMetallicRoughness":{
				"baseColorTexture":{
					"extensions":{
						"KHR_texture_transform":{
							"offset":[
								-0.008206585422158241,
								-0.014086008071899414
							],
							"scale":[
								1.017647624015808,
								1.746718406677246
							]
						}
					},
					"index":20
				},
				"metallicRoughnessTexture":{
					"extensions":{
						"KHR_texture_transform":{
							"offset":[
								-0.008206585422158241,
								-0.014086008071899414
							],
							"scale":[
								1.017647624015808,
								1.746718406677246
							]
						}
					},
					"index":19
				}
			}
		},
		{
			"doubleSided":true,
			"name":"MI_ElectricityBoxes",
			"normalTexture":{
				"index":21
			},
			"occlusionTexture":{
				"index":22
			},
			"pbrMetallicRoughness":{
				"baseColorTexture":{
					"index":23
				},
				"metallicRoughnessTexture":{
					"index":22
				}
			}
		}
	],
	"meshes":[
		{
			"name":"SM_BP_WallCon_8x4",
			"primitives":[
				{
					"attributes":{
						"POSITION":0,
						"NORMAL":1,
						"TEXCOORD_0":2
					},
					"indices":3,
					"material":0
				}
			]
		},
		{
			"name":"SM_BP_WallCon_8x4.001",
			"primitives":[
				{
					"attributes":{
						"POSITION":4,
						"NORMAL":5,
						"TEXCOORD_0":6
					},
					"indices":3,
					"material":0
				}
			]
		},
		{
			"name":"SM_Floors_Plain_29",
			"primitives":[
				{
					"attributes":{
						"POSITION":7,
						"NORMAL":8,
						"TEXCOORD_0":9
					},
					"indices":10,
					"material":1
				}
			]
		},
		{
			"name":"SM_Floors_Plain_30",
			"primitives":[
				{
					"attributes":{
						"POSITION":11,
						"NORMAL":12,
						"TEXCOORD_0":13
					},
					"indices":10,
					"material":2
				}
			]
		},
		{
			"name":"SM_Wall_Inside_2",
			"primitives":[
				{
					"attributes":{
						"POSITION":14,
						"NORMAL":15,
						"TEXCOORD_0":16
					},
					"indices":17,
					"material":3
				}
			]
		},
		{
			"name":"SM_BW_BrickWall4m",
			"primitives":[
				{
					"attributes":{
						"POSITION":18,
						"NORMAL":19,
						"TEXCOORD_0":20,
						"TEXCOORD_1":21
					},
					"indices":22,
					"material":4
				}
			]
		},
		{
			"name":"SM_Floors_Thick_132",
			"primitives":[
				{
					"attributes":{
						"POSITION":23,
						"NORMAL":24,
						"TEXCOORD_0":25
					},
					"indices":22,
					"material":5
				}
			]
		},
		{
			"name":"SM_Floors_Thick_133",
			"primitives":[
				{
					"attributes":{
						"POSITION":26,
						"NORMAL":27,
						"TEXCOORD_0":28
					},
					"indices":22,
					"material":6
				}
			]
		},
		{
			"name":"SM_electricitybox3",
			"primitives":[
				{
					"attributes":{
						"POSITION":29,
						"NORMAL":30,
						"TEXCOORD_0":31
					},
					"indices":32,
					"material":7
				}
			]
		},
		{
			"name":"SM_electricitybox2",
			"primitives":[
				{
					"attributes":{
						"POSITION":33,
						"NORMAL":34,
						"TEXCOORD_0":35
					},
					"indices":36,
					"material":7
				}
			]
		},
		{
			"name":"SM_electricitybox1",
			"primitives":[
				{
					"attributes":{
						"POSITION":37,
						"NORMAL":38,
						"TEXCOORD_0":39
					},
					"indices":40,
					"material":7
				}
			]
		}
	],
	"textures":[
		{
			"sampler":0,
			"source":0
		},
		{
			"sampler":0,
			"source":1
		},
		{
			"sampler":0,
			"source":2
		},
		{
			"sampler":0,
			"source":3
		},
		{
			"sampler":0,
			"source":4
		},
		{
			"sampler":0,
			"source":5
		},
		{
			"sampler":0,
			"source":3
		},
		{
			"sampler":0,
			"source":6
		},
		{
			"sampler":0,
			"source":7
		},
		{
			"sampler":0,
			"source":8
		},
		{
			"sampler":0,
			"source":9
		},
		{
			"sampler":0,
			"source":10
		},
		{
			"sampler":0,
			"source":11
		},
		{
			"sampler":0,
			"source":12
		},
		{
			"sampler":0,
			"source":13
		},
		{
			"sampler":0,
			"source":3
		},
		{
			"sampler":0,
			"source":14
		},
		{
			"sampler":0,
			"source":15
		},
		{
			"sampler":0,
			"source":3
		},
		{
			"sampler":0,
			"source":16
		},
		{
			"sampler":0,
			"source":17
		},
		{
			"sampler":0,
			"source":18
		},
		{
			"sampler":0,
			"source":19
		},
		{
			"sampler":0,
			"source":20
		}
	],
	"images":[
		{
			"mimeType":"image/png",
			"name":"T_Tileable_N",
			"uri":"T_Tileable_N.png"
		},
		{
			"mimeType":"image/png",
			"name":"T_Tileable_ORM",
			"uri":"T_Tileable_ORM.png"
		},
		{
			"mimeType":"image/png",
			"name":"T_Tileable_BC",
			"uri":"T_Tileable_BC.png"
		},
		{
			"mimeType":"image/png",
			"name":"T_Floors_2_N",
			"uri":"T_Floors_2_N.png"
		},
		{
			"mimeType":"image/png",
			"name":"T_Floors_2_ORM-M_ConcreteGrunge_SM_Floors_Plain_29_MetallicRoughness",
			"uri":"T_Floors_2_ORM-M_ConcreteGrunge_SM_Floors_Plain_29_MetallicRoughness.png"
		},
		{
			"mimeType":"image/png",
			"name":"M_ConcreteGrunge_SM_Floors_Plain_29_BaseColor",
			"uri":"M_ConcreteGrunge_SM_Floors_Plain_29_BaseColor.png"
		},
		{
			"mimeType":"image/png",
			"name":"T_Floors_2_ORM-M_ConcreteGrunge_SM_Floors_Plain_30_MetallicRoughness",
			"uri":"T_Floors_2_ORM-M_ConcreteGrunge_SM_Floors_Plain_30_MetallicRoughness.png"
		},
		{
			"mimeType":"image/png",
			"name":"M_ConcreteGrunge_SM_Floors_Plain_30_BaseColor",
			"uri":"M_ConcreteGrunge_SM_Floors_Plain_30_BaseColor.png"
		},
		{
			"mimeType":"image/png",
			"name":"T_Drywall_N",
			"uri":"T_Drywall_N.png"
		},
		{
			"mimeType":"image/png",
			"name":"T_Drywall_ORM",
			"uri":"T_Drywall_ORM.png"
		},
		{
			"mimeType":"image/png",
			"name":"T_Drywall_BC",
			"uri":"T_Drywall_BC.png"
		},
		{
			"mimeType":"image/png",
			"name":"T_Brick_Wall_N",
			"uri":"T_Brick_Wall_N.png"
		},
		{
			"mimeType":"image/png",
			"name":"T_Brick_Wall_ORM",
			"uri":"T_Brick_Wall_ORM.png"
		},
		{
			"mimeType":"image/png",
			"name":"T_Brick_Wall_BC",
			"uri":"T_Brick_Wall_BC.png"
		},
		{
			"mimeType":"image/png",
			"name":"T_Floors_2_ORM-M_ConcreteGrunge_SM_Floors_Thick_132_MetallicRoughness",
			"uri":"T_Floors_2_ORM-M_ConcreteGrunge_SM_Floors_Thick_132_MetallicRoughness.png"
		},
		{
			"mimeType":"image/png",
			"name":"M_ConcreteGrunge_SM_Floors_Thick_132_BaseColor",
			"uri":"M_ConcreteGrunge_SM_Floors_Thick_132_BaseColor.png"
		},
		{
			"mimeType":"image/png",
			"name":"T_Floors_2_ORM-M_ConcreteGrunge_SM_Floors_Thick_133_MetallicRoughness",
			"uri":"T_Floors_2_ORM-M_ConcreteGrunge_SM_Floors_Thick_133_MetallicRoughness.png"
		},
		{
			"mimeType":"image/png",
			"name":"M_ConcreteGrunge_SM_Floors_Thick_133_BaseColor",
			"uri":"M_ConcreteGrunge_SM_Floors_Thick_133_BaseColor.png"
		},
		{
			"mimeType":"image/png",
			"name":"T_ElectricityBoxes_N",
			"uri":"T_ElectricityBoxes_N.png"
		},
		{
			"mimeType":"image/png",
			"name":"T_ElectricityBoxes_ORM",
			"uri":"T_ElectricityBoxes_ORM.png"
		},
		{
			"mimeType":"image/png",
			"name":"T_ElectricityBoxes_D_sRGB",
			"uri":"T_ElectricityBoxes_D_sRGB.png"
		}
	],
	"accessors":[
		{
			"bufferView":0,
			"componentType":5126,
			"count":132,
			"max":[
				7.687894821166992,
				4.768124580383301,
				-7.669930458068848
			],
			"min":[
				-0.3121051788330078,
				0.3681243658065796,
				-8.069930076599121
			],
			"type":"VEC3"
		},
		{
			"bufferView":1,
			"componentType":5126,
			"count":132,
			"type":"VEC3"
		},
		{
			"bufferView":2,
			"componentType":5126,
			"count":132,
			"type":"VEC2"
		},
		{
			"bufferView":3,
			"componentType":5123,
			"count":132,
			"type":"SCALAR"
		},
		{
			"bufferView":4,
			"componentType":5126,
			"count":132,
			"max":[
				-0.312103271484375,
				4.768124580383301,
				-7.669930458068848
			],
			"min":[
				-8.312103271484375,
				0.3681243658065796,
				-8.069930076599121
			],
			"type":"VEC3"
		},
		{
			"bufferView":5,
			"componentType":5126,
			"count":132,
			"type":"VEC3"
		},
		{
			"bufferView":6,
			"componentType":5126,
			"count":132,
			"type":"VEC2"
		},
		{
			"bufferView":7,
			"componentType":5126,
			"count":6,
			"max":[
				8.087896347045898,
				0.36812567710876465,
				8.130069732666016
			],
			"min":[
				0.08789634704589844,
				0.3681243658065796,
				0.13006973266601562
			],
			"type":"VEC3"
		},
		{
			"bufferView":8,
			"componentType":5126,
			"count":6,
			"type":"VEC3"
		},
		{
			"bufferView":9,
			"componentType":5126,
			"count":6,
			"type":"VEC2"
		},
		{
			"bufferView":10,
			"componentType":5123,
			"count":6,
			"type":"SCALAR"
		},
		{
			"bufferView":11,
			"componentType":5126,
			"count":6,
			"max":[
				0.08789634704589844,
				0.36812567710876465,
				8.130069732666016
			],
			"min":[
				-7.912103652954102,
				0.3681243658065796,
				0.13006973266601562
			],
			"type":"VEC3"
		},
		{
			"bufferView":12,
			"componentType":5126,
			"count":6,
			"type":"VEC3"
		},
		{
			"bufferView":13,
			"componentType":5126,
			"count":6,
			"type":"VEC2"
		},
		{
			"bufferView":14,
			"componentType":5126,
			"count":96,
			"max":[
				-0.012104010209441185,
				4.368124485015869,
				4.352565765380859
			],
			"min":[
				-4.012104034423828,
				0.3681243658065796,
				4.330069065093994
			],
			"type":"VEC3"
		},
		{
			"bufferView":15,
			"componentType":5126,
			"count":96,
			"type":"VEC3"
		},
		{
			"bufferView":16,
			"componentType":5126,
			"count":96,
			"type":"VEC2"
		},
		{
			"bufferView":17,
			"componentType":5123,
			"count":96,
			"type":"SCALAR"
		},
		{
			"bufferView":18,
			"componentType":5126,
			"count":36,
			"max":[
				3.987895965576172,
				4.368124485015869,
				4.330071926116943
			],
			"min":[
				-0.012104034423828125,
				0.3681243658065796,
				4.130069732666016
			],
			"type":"VEC3"
		},
		{
			"bufferView":19,
			"componentType":5126,
			"count":36,
			"type":"VEC3"
		},
		{
			"bufferView":20,
			"componentType":5126,
			"count":36,
			"type":"VEC2"
		},
		{
			"bufferView":21,
			"componentType":5126,
			"count":36,
			"type":"VEC2"
		},
		{
			"bufferView":22,
			"componentType":5123,
			"count":36,
			"type":"SCALAR"
		},
		{
			"bufferView":23,
			"componentType":5126,
			"count":36,
			"max":[
				0.0878048688173294,
				0.3681256175041199,
				0.12998248636722565
			],
			"min":[
				-8.66220474243164,
				-0.031875669956207275,
				-7.870027542114258
			],
			"type":"VEC3"
		},
		{
			"bufferView":24,
			"componentType":5126,
			"count":36,
			"type":"VEC3"
		},
		{
			"bufferView":25,
			"componentType":5126,
			"count":36,
			"type":"VEC2"
		},
		{
			"bufferView":26,
			"componentType":5126,
			"count":36,
			"max":[
				8.087804794311523,
				0.3681256175041199,
				0.12997876107692719
			],
			"min":[
				0.08779525756835938,
				-0.031875669956207275,
				-7.870030403137207
			],
			"type":"VEC3"
		},
		{
			"bufferView":27,
			"componentType":5126,
			"count":36,
			"type":"VEC3"
		},
		{
			"bufferView":28,
			"componentType":5126,
			"count":36,
			"type":"VEC2"
		},
		{
			"bufferView":29,
			"componentType":5126,
			"count":1878,
			"max":[
				1.0254535675048828,
				2.337049961090088,
				4.5127644538879395
			],
			"min":[
				0.6052646636962891,
				1.7231186628341675,
				4.330070495605469
			],
			"type":"VEC3"
		},
		{
			"bufferView":30,
			"componentType":5126,
			"count":1878,
			"type":"VEC3"
		},
		{
			"bufferView":31,
			"componentType":5126,
			"count":1878,
			"type":"VEC2"
		},
		{
			"bufferView":32,
			"componentType":5123,
			"count":1878,
			"type":"SCALAR"
		},
		{
			"bufferView":33,
			"componentType":5126,
			"count":5016,
			"max":[
				2.509021759033203,
				3.106886386871338,
				4.494841575622559
			],
			"min":[
				1.3073654174804688,
				1.418341040611267,
				4.330070495605469
			],
			"type":"VEC3"
		},
		{
			"bufferView":34,
			"componentType":5126,
			"count":5016,
			"type":"VEC3"
		},
		{
			"bufferView":35,
			"componentType":5126,
			"count":5016,
			"type":"VEC2"
		},
		{
			"bufferView":36,
			"componentType":5123,
			"count":5016,
			"type":"SCALAR"
		},
		{
			"bufferView":37,
			"componentType":5126,
			"count":2544,
			"max":[
				3.6477184295654297,
				3.112396717071533,
				4.494840621948242
			],
			"min":[
				3.028074264526367,
				1.4238516092300415,
				4.330069541931152
			],
			"type":"VEC3"
		},
		{
			"bufferView":38,
			"componentType":5126,
			"count":2544,
			"type":"VEC3"
		},
		{
			"bufferView":39,
			"componentType":5126,
			"count":2544,
			"type":"VEC2"
		},
		{
			"bufferView":40,
			"componentType":5123,
			"count":2544,
			"type":"SCALAR"
		}
	],
	"bufferViews":[
		{
			"buffer":0,
			"byteLength":1584,
			"byteOffset":0,
			"target":34962
		},
		{
			"buffer":0,
			"byteLength":1584,
			"byteOffset":1584,
			"target":34962
		},
		{
			"buffer":0,
			"byteLength":1056,
			"byteOffset":3168,
			"target":34962
		},
		{
			"buffer":0,
			"byteLength":264,
			"byteOffset":4224,
			"target":34963
		},
		{
			"buffer":0,
			"byteLength":1584,
			"byteOffset":4488,
			"target":34962
		},
		{
			"buffer":0,
			"byteLength":1584,
			"byteOffset":6072,
			"target":34962
		},
		{
			"buffer":0,
			"byteLength":1056,
			"byteOffset":7656,
			"target":34962
		},
		{
			"buffer":0,
			"byteLength":72,
			"byteOffset":8712,
			"target":34962
		},
		{
			"buffer":0,
			"byteLength":72,
			"byteOffset":8784,
			"target":34962
		},
		{
			"buffer":0,
			"byteLength":48,
			"byteOffset":8856,
			"target":34962
		},
		{
			"buffer":0,
			"byteLength":12,
			"byteOffset":8904,
			"target":34963
		},
		{
			"buffer":0,
			"byteLength":72,
			"byteOffset":8916,
			"target":34962
		},
		{
			"buffer":0,
			"byteLength":72,
			"byteOffset":8988,
			"target":34962
		},
		{
			"buffer":0,
			"byteLength":48,
			"byteOffset":9060,
			"target":34962
		},
		{
			"buffer":0,
			"byteLength":1152,
			"byteOffset":9108,
			"target":34962
		},
		{
			"buffer":0,
			"byteLength":1152,
			"byteOffset":10260,
			"target":34962
		},
		{
			"buffer":0,
			"byteLength":768,
			"byteOffset":11412,
			"target":34962
		},
		{
			"buffer":0,
			"byteLength":192,
			"byteOffset":12180,
			"target":34963
		},
		{
			"buffer":0,
			"byteLength":432,
			"byteOffset":12372,
			"target":34962
		},
		{
			"buffer":0,
			"byteLength":432,
			"byteOffset":12804,
			"target":34962
		},
		{
			"buffer":0,
			"byteLength":288,
			"byteOffset":13236,
			"target":34962
		},
		{
			"buffer":0,
			"byteLength":288,
			"byteOffset":13524,
			"target":34962
		},
		{
			"buffer":0,
			"byteLength":72,
			"byteOffset":13812,
			"target":34963
		},
		{
			"buffer":0,
			"byteLength":432,
			"byteOffset":13884,
			"target":34962
		},
		{
			"buffer":0,
			"byteLength":432,
			"byteOffset":14316,
			"target":34962
		},
		{
			"buffer":0,
			"byteLength":288,
			"byteOffset":14748,
			"target":34962
		},
		{
			"buffer":0,
			"byteLength":432,
			"byteOffset":15036,
			"target":34962
		},
		{
			"buffer":0,
			"byteLength":432,
			"byteOffset":15468,
			"target":34962
		},
		{
			"buffer":0,
			"byteLength":288,
			"byteOffset":15900,
			"target":34962
		},
		{
			"buffer":0,
			"byteLength":22536,
			"byteOffset":16188,
			"target":34962
		},
		{
			"buffer":0,
			"byteLength":22536,
			"byteOffset":38724,
			"target":34962
		},
		{
			"buffer":0,
			"byteLength":15024,
			"byteOffset":61260,
			"target":34962
		},
		{
			"buffer":0,
			"byteLength":3756,
			"byteOffset":76284,
			"target":34963
		},
		{
			"buffer":0,
			"byteLength":60192,
			"byteOffset":80040,
			"target":34962
		},
		{
			"buffer":0,
			"byteLength":60192,
			"byteOffset":140232,
			"target":34962
		},
		{
			"buffer":0,
			"byteLength":40128,
			"byteOffset":200424,
			"target":34962
		},
		{
			"buffer":0,
			"byteLength":10032,
			"byteOffset":240552,
			"target":34963
		},
		{
			"buffer":0,
			"byteLength":30528,
			"byteOffset":250584,
			"target":34962
		},
		{
			"buffer":0,
			"byteLength":30528,
			"byteOffset":281112,
			"target":34962
		},
		{
			"buffer":0,
			"byteLength":20352,
			"byteOffset":311640,
			"target":34962
		},
		{
			"buffer":0,
			"byteLength":5088,
			"byteOffset":331992,
			"target":34963
		}
	],
	"samplers":[
		{
			"magFilter":9729,
			"minFilter":9987
		}
	],
	"buffers":[
		{
			"byteLength":337080,
			"uri":"BuildingMap_1_3.bin"
		}
	]
}
