{
	"asset":{
		"generator":"Khronos glTF Blender I/O v4.3.47",
		"version":"2.0"
	},
	"scene":0,
	"scenes":[
		{
			"name":"Scene",
			"nodes":[
				0
			]
		}
	],
	"nodes":[
		{
			"mesh":0,
			"name":"\u30c6\u30ad\u30b9\u30c8.001"
		}
	],
	"meshes":[
		{
			"name":"\u30c6\u30ad\u30b9\u30c8.001",
			"primitives":[
				{
					"attributes":{
						"POSITION":0,
						"NORMAL":1,
						"TEXCOORD_0":2
					},
					"indices":3
				}
			]
		}
	],
	"accessors":[
		{
			"bufferView":0,
			"componentType":5126,
			"count":692,
			"max":[
				0.1277168244123459,
				0.28778573870658875,
				0.05100207030773163
			],
			"min":[
				-0.11770043522119522,
				-6.852573619653413e-09,
				-0.051002033054828644
			],
			"type":"VEC3"
		},
		{
			"bufferView":1,
			"componentType":5126,
			"count":692,
			"type":"VEC3"
		},
		{
			"bufferView":2,
			"componentType":5126,
			"count":692,
			"type":"VEC2"
		},
		{
			"bufferView":3,
			"componentType":5123,
			"count":2040,
			"type":"SCALAR"
		}
	],
	"bufferViews":[
		{
			"buffer":0,
			"byteLength":8304,
			"byteOffset":0,
			"target":34962
		},
		{
			"buffer":0,
			"byteLength":8304,
			"byteOffset":8304,
			"target":34962
		},
		{
			"buffer":0,
			"byteLength":5536,
			"byteOffset":16608,
			"target":34962
		},
		{
			"buffer":0,
			"byteLength":4080,
			"byteOffset":22144,
			"target":34963
		}
	],
	"buffers":[
		{
			"byteLength":26224,
			"uri":"B.bin"
		}
	]
}
