{
	"asset":{
		"generator":"Khronos glTF Blender I/O v4.3.47",
		"version":"2.0"
	},
	"scene":0,
	"scenes":[
		{
			"name":"Scene",
			"nodes":[
				2
			]
		}
	],
	"nodes":[
		{
			"name":"SM_Ladder_L1",
			"translation":[
				-0.09999999403953552,
				0,
				0
			]
		},
		{
			"mesh":0,
			"name":"SM_Ladder_L2"
		},
		{
			"children":[
				0,
				1
			],
			"mesh":1,
			"name":"BP_Ladder",
			"rotation":[
				0,
				0,
				-0.5372986793518066,
				0.8433920741081238
			]
		}
	],
	"materials":[
		{
			"doubleSided":true,
			"name":"MI_Atlas_2",
			"normalTexture":{
				"index":0
			},
			"occlusionTexture":{
				"index":1
			},
			"pbrMetallicRoughness":{
				"baseColorTexture":{
					"index":2
				},
				"metallicRoughnessTexture":{
					"index":1
				}
			}
		}
	],
	"meshes":[
		{
			"name":"SM_Ladder_L2.001",
			"primitives":[
				{
					"attributes":{
						"POSITION":0,
						"NORMAL":1,
						"TEXCOORD_0":2
					},
					"indices":3,
					"material":0
				}
			]
		},
		{
			"name":"SM_Ladder_L2",
			"primitives":[
				{
					"attributes":{
						"POSITION":4,
						"NORMAL":5,
						"TEXCOORD_0":6
					},
					"indices":3,
					"material":0
				}
			]
		}
	],
	"textures":[
		{
			"sampler":0,
			"source":0
		},
		{
			"sampler":0,
			"source":1
		},
		{
			"sampler":0,
			"source":2
		}
	],
	"images":[
		{
			"mimeType":"image/png",
			"name":"T_Table_N",
			"uri":"T_Table_N.png"
		},
		{
			"mimeType":"image/png",
			"name":"T_Table_ORM",
			"uri":"T_Table_ORM.png"
		},
		{
			"mimeType":"image/png",
			"name":"T_Table_BC",
			"uri":"T_Table_BC.png"
		}
	],
	"accessors":[
		{
			"bufferView":0,
			"componentType":5126,
			"count":984,
			"max":[
				2.170762062072754,
				0.2802131772041321,
				0.6330013275146484
			],
			"min":[
				-3.113300085067749,
				0.11112064123153687,
				-0.28541669249534607
			],
			"type":"VEC3"
		},
		{
			"bufferView":1,
			"componentType":5126,
			"count":984,
			"type":"VEC3"
		},
		{
			"bufferView":2,
			"componentType":5126,
			"count":984,
			"type":"VEC2"
		},
		{
			"bufferView":3,
			"componentType":5123,
			"count":984,
			"type":"SCALAR"
		},
		{
			"bufferView":4,
			"componentType":5126,
			"count":984,
			"max":[
				2.470762014389038,
				0.28021320700645447,
				0.6330013275146484
			],
			"min":[
				-2.813300132751465,
				0.11112067103385925,
				-0.28541669249534607
			],
			"type":"VEC3"
		},
		{
			"bufferView":5,
			"componentType":5126,
			"count":984,
			"type":"VEC3"
		},
		{
			"bufferView":6,
			"componentType":5126,
			"count":984,
			"type":"VEC2"
		}
	],
	"bufferViews":[
		{
			"buffer":0,
			"byteLength":11808,
			"byteOffset":0,
			"target":34962
		},
		{
			"buffer":0,
			"byteLength":11808,
			"byteOffset":11808,
			"target":34962
		},
		{
			"buffer":0,
			"byteLength":7872,
			"byteOffset":23616,
			"target":34962
		},
		{
			"buffer":0,
			"byteLength":1968,
			"byteOffset":31488,
			"target":34963
		},
		{
			"buffer":0,
			"byteLength":11808,
			"byteOffset":33456,
			"target":34962
		},
		{
			"buffer":0,
			"byteLength":11808,
			"byteOffset":45264,
			"target":34962
		},
		{
			"buffer":0,
			"byteLength":7872,
			"byteOffset":57072,
			"target":34962
		}
	],
	"samplers":[
		{
			"magFilter":9729,
			"minFilter":9987
		}
	],
	"buffers":[
		{
			"byteLength":64944,
			"uri":"SM_Ladder.bin"
		}
	]
}
