{
	"asset":
	{
		"version": "2.0",
		"generator": "Unreal Engine 5.5.4"
	},
	"scene": 0,
	"accessors": [
		{
			"bufferView": 0,
			"count": 2904,
			"type": "SCALAR",
			"componentType": 5123
		},
		{
			"bufferView": 1,
			"count": 2904,
			"type": "VEC3",
			"componentType": 5126,
			"min": [ -4.27705765, -1.41199316e-10, -4.41700411 ],
			"max": [ 4.37053061, 3.70508027, 4.51121664 ]
		},
		{
			"bufferView": 2,
			"count": 2904,
			"type": "VEC3",
			"componentType": 5126
		},
		{
			"bufferView": 3,
			"count": 2904,
			"type": "VEC2",
			"componentType": 5126
		},
		{
			"bufferView": 4,
			"count": 684,
			"type": "SCALAR",
			"componentType": 5123
		},
		{
			"bufferView": 5,
			"count": 684,
			"type": "VEC3",
			"componentType": 5126,
			"min": [ -1.79587173, 30.8516293, -2.43225884 ],
			"max": [ 3.60755944, 33.166275, 1.76119459 ]
		},
		{
			"bufferView": 6,
			"count": 684,
			"type": "VEC3",
			"componentType": 5126
		},
		{
			"bufferView": 7,
			"count": 684,
			"type": "VEC2",
			"componentType": 5126
		},
		{
			"bufferView": 8,
			"count": 468,
			"type": "SCALAR",
			"componentType": 5123
		},
		{
			"bufferView": 9,
			"count": 468,
			"type": "VEC3",
			"componentType": 5126,
			"min": [ 1.42394233, 29.9550686, -2.53453088 ],
			"max": [ 3.64399767, 31.809885, 1.61896944 ]
		},
		{
			"bufferView": 10,
			"count": 468,
			"type": "VEC3",
			"componentType": 5126
		},
		{
			"bufferView": 11,
			"count": 468,
			"type": "VEC2",
			"componentType": 5126
		},
		{
			"bufferView": 12,
			"count": 22680,
			"type": "SCALAR",
			"componentType": 5123
		},
		{
			"bufferView": 13,
			"count": 22680,
			"type": "VEC3",
			"componentType": 5126,
			"min": [ -1.78958511, 1.03603244, -1.7335881 ],
			"max": [ 1.74284852, 32.372982, 1.79882979 ]
		},
		{
			"bufferView": 14,
			"count": 22680,
			"type": "VEC3",
			"componentType": 5126
		},
		{
			"bufferView": 15,
			"count": 22680,
			"type": "VEC2",
			"componentType": 5126
		},
		{
			"bufferView": 16,
			"count": 22680,
			"type": "VEC2",
			"componentType": 5126
		},
		{
			"bufferView": 17,
			"count": 1632,
			"type": "SCALAR",
			"componentType": 5123
		},
		{
			"bufferView": 18,
			"count": 1632,
			"type": "VEC3",
			"componentType": 5126,
			"min": [ 1.29539156, 1.00706589, 1.3759619 ],
			"max": [ 3.17437458, 3.37839031, 3.25260043 ]
		},
		{
			"bufferView": 19,
			"count": 1632,
			"type": "VEC3",
			"componentType": 5126
		},
		{
			"bufferView": 20,
			"count": 1632,
			"type": "VEC2",
			"componentType": 5126
		},
		{
			"bufferView": 21,
			"count": 1632,
			"type": "SCALAR",
			"componentType": 5123
		},
		{
			"bufferView": 22,
			"count": 1632,
			"type": "VEC3",
			"componentType": 5126,
			"min": [ 1.29539156, 1.00706589, -3.17559767 ],
			"max": [ 3.17202997, 3.37839031, -1.29661477 ]
		},
		{
			"bufferView": 23,
			"count": 1632,
			"type": "VEC3",
			"componentType": 5126
		},
		{
			"bufferView": 24,
			"count": 1632,
			"type": "VEC2",
			"componentType": 5126
		},
		{
			"bufferView": 25,
			"count": 1632,
			"type": "SCALAR",
			"componentType": 5123
		},
		{
			"bufferView": 26,
			"count": 1632,
			"type": "VEC3",
			"componentType": 5126,
			"min": [ -3.22502303, 1.00706589, -3.17325258 ],
			"max": [ -1.3460393, 3.37839031, -1.29661465 ]
		},
		{
			"bufferView": 27,
			"count": 1632,
			"type": "VEC3",
			"componentType": 5126
		},
		{
			"bufferView": 28,
			"count": 1632,
			"type": "VEC2",
			"componentType": 5126
		},
		{
			"bufferView": 29,
			"count": 1632,
			"type": "SCALAR",
			"componentType": 5123
		},
		{
			"bufferView": 30,
			"count": 1632,
			"type": "VEC3",
			"componentType": 5126,
			"min": [ -3.22267723, 1.00706589, 1.3719629 ],
			"max": [ -1.3460393, 3.37839031, 3.25094652 ]
		},
		{
			"bufferView": 31,
			"count": 1632,
			"type": "VEC3",
			"componentType": 5126
		},
		{
			"bufferView": 32,
			"count": 1632,
			"type": "VEC2",
			"componentType": 5126
		},
		{
			"bufferView": 33,
			"count": 900,
			"type": "SCALAR",
			"componentType": 5123
		},
		{
			"bufferView": 34,
			"count": 900,
			"type": "VEC3",
			"componentType": 5126,
			"min": [ 2.67237306, -0.000404745544, -4.07611084 ],
			"max": [ 4.20201969, 1.18675101, -2.58537316 ]
		},
		{
			"bufferView": 35,
			"count": 900,
			"type": "VEC3",
			"componentType": 5126
		},
		{
			"bufferView": 36,
			"count": 900,
			"type": "VEC2",
			"componentType": 5126
		},
		{
			"bufferView": 37,
			"count": 900,
			"type": "VEC2",
			"componentType": 5126
		},
		{
			"bufferView": 38,
			"count": 900,
			"type": "SCALAR",
			"componentType": 5123
		},
		{
			"bufferView": 39,
			"count": 900,
			"type": "VEC3",
			"componentType": 5126,
			"min": [ -4.09971189, -0.000404745544, -4.2512722 ],
			"max": [ -2.60897446, 1.18675101, -2.72162557 ]
		},
		{
			"bufferView": 40,
			"count": 900,
			"type": "VEC3",
			"componentType": 5126
		},
		{
			"bufferView": 41,
			"count": 900,
			"type": "SCALAR",
			"componentType": 5123
		},
		{
			"bufferView": 42,
			"count": 900,
			"type": "VEC3",
			"componentType": 5126,
			"min": [ -4.05095434, -0.000404745544, 2.55856895 ],
			"max": [ -2.52130771, 1.18675101, 4.04930639 ]
		},
		{
			"bufferView": 43,
			"count": 900,
			"type": "VEC3",
			"componentType": 5126
		},
		{
			"bufferView": 44,
			"count": 900,
			"type": "SCALAR",
			"componentType": 5123
		},
		{
			"bufferView": 45,
			"count": 900,
			"type": "VEC3",
			"componentType": 5126,
			"min": [ 2.71176958, -0.000404745544, 2.55856895 ],
			"max": [ 4.24141645, 1.18675101, 4.04930639 ]
		},
		{
			"bufferView": 46,
			"count": 10896,
			"type": "SCALAR",
			"componentType": 5123
		},
		{
			"bufferView": 47,
			"count": 10896,
			"type": "VEC3",
			"componentType": 5126,
			"min": [ -0.892722905, -0.949763834, -13.5123119 ],
			"max": [ 2.88370609, 10.3590498, 29.8090324 ]
		},
		{
			"bufferView": 48,
			"count": 10896,
			"type": "VEC3",
			"componentType": 5126
		},
		{
			"bufferView": 49,
			"count": 10896,
			"type": "VEC2",
			"componentType": 5126
		},
		{
			"bufferView": 50,
			"count": 10896,
			"type": "VEC2",
			"componentType": 5126
		},
		{
			"bufferView": 51,
			"count": 1752,
			"type": "SCALAR",
			"componentType": 5123
		},
		{
			"bufferView": 52,
			"count": 1752,
			"type": "VEC3",
			"componentType": 5126,
			"min": [ -1.40459454, -0.0159943439, -1.79543161 ],
			"max": [ 3.16065645, 10.4945889, 2.02795577 ]
		},
		{
			"bufferView": 53,
			"count": 1752,
			"type": "VEC3",
			"componentType": 5126
		},
		{
			"bufferView": 54,
			"count": 1752,
			"type": "VEC2",
			"componentType": 5126
		},
		{
			"bufferView": 55,
			"count": 1752,
			"type": "VEC2",
			"componentType": 5126
		},
		{
			"bufferView": 56,
			"count": 2466,
			"type": "SCALAR",
			"componentType": 5123
		},
		{
			"bufferView": 57,
			"count": 2466,
			"type": "VEC3",
			"componentType": 5126,
			"min": [ -2.46101689, 0.76358366, -13.3263826 ],
			"max": [ 2.30507612, 6.04013348, 1.12532985 ]
		},
		{
			"bufferView": 58,
			"count": 2466,
			"type": "VEC3",
			"componentType": 5126
		},
		{
			"bufferView": 59,
			"count": 2466,
			"type": "VEC2",
			"componentType": 5126
		},
		{
			"bufferView": 60,
			"count": 2466,
			"type": "VEC2",
			"componentType": 5126
		},
		{
			"bufferView": 61,
			"count": 1584,
			"type": "SCALAR",
			"componentType": 5123
		},
		{
			"bufferView": 62,
			"count": 1584,
			"type": "VEC3",
			"componentType": 5126,
			"min": [ -0.36882323, -8.1936655, -0.966471076 ],
			"max": [ 0.368822962, -0.692581832, 1.2716471 ]
		},
		{
			"bufferView": 63,
			"count": 1584,
			"type": "VEC3",
			"componentType": 5126
		},
		{
			"bufferView": 64,
			"count": 1584,
			"type": "VEC2",
			"componentType": 5126
		},
		{
			"bufferView": 65,
			"count": 1584,
			"type": "VEC2",
			"componentType": 5126
		},
		{
			"bufferView": 66,
			"count": 360,
			"type": "SCALAR",
			"componentType": 5123
		},
		{
			"bufferView": 67,
			"count": 360,
			"type": "VEC3",
			"componentType": 5126,
			"min": [ -1.0220201, -1.91442525, -1.23167336 ],
			"max": [ 0.935636342, -0.69591409, 1.47183001 ]
		},
		{
			"bufferView": 68,
			"count": 360,
			"type": "VEC3",
			"componentType": 5126
		},
		{
			"bufferView": 69,
			"count": 360,
			"type": "VEC2",
			"componentType": 5126
		},
		{
			"bufferView": 70,
			"count": 360,
			"type": "VEC2",
			"componentType": 5126
		},
		{
			"bufferView": 71,
			"count": 108,
			"type": "SCALAR",
			"componentType": 5121
		},
		{
			"bufferView": 72,
			"count": 108,
			"type": "VEC3",
			"componentType": 5126,
			"min": [ -0.0017979237, -6.75808144, -0.135970205 ],
			"max": [ 0.0604626313, -1.66390741, 0.46576336 ]
		},
		{
			"bufferView": 73,
			"count": 108,
			"type": "VEC3",
			"componentType": 5126
		},
		{
			"bufferView": 74,
			"count": 108,
			"type": "VEC2",
			"componentType": 5126
		},
		{
			"bufferView": 75,
			"count": 108,
			"type": "VEC2",
			"componentType": 5126
		},
		{
			"bufferView": 76,
			"count": 108,
			"type": "VEC2",
			"componentType": 5126
		}
	],
	"buffers": [
		{
			"uri": "Crane.bin",
			"byteLength": 2131344
		}
	],
	"bufferViews": [
		{
			"buffer": 0,
			"byteLength": 5808,
			"target": 34963
		},
		{
			"buffer": 0,
			"byteLength": 34848,
			"byteOffset": 5808,
			"target": 34962
		},
		{
			"buffer": 0,
			"byteLength": 34848,
			"byteOffset": 40656,
			"target": 34962
		},
		{
			"buffer": 0,
			"byteLength": 23232,
			"byteOffset": 75504,
			"target": 34962
		},
		{
			"buffer": 0,
			"byteLength": 1368,
			"byteOffset": 98736,
			"target": 34963
		},
		{
			"buffer": 0,
			"byteLength": 8208,
			"byteOffset": 100104,
			"target": 34962
		},
		{
			"buffer": 0,
			"byteLength": 8208,
			"byteOffset": 108312,
			"target": 34962
		},
		{
			"buffer": 0,
			"byteLength": 5472,
			"byteOffset": 116520,
			"target": 34962
		},
		{
			"buffer": 0,
			"byteLength": 936,
			"byteOffset": 121992,
			"target": 34963
		},
		{
			"buffer": 0,
			"byteLength": 5616,
			"byteOffset": 122928,
			"target": 34962
		},
		{
			"buffer": 0,
			"byteLength": 5616,
			"byteOffset": 128544,
			"target": 34962
		},
		{
			"buffer": 0,
			"byteLength": 3744,
			"byteOffset": 134160,
			"target": 34962
		},
		{
			"buffer": 0,
			"byteLength": 45360,
			"byteOffset": 137904,
			"target": 34963
		},
		{
			"buffer": 0,
			"byteLength": 272160,
			"byteOffset": 183264,
			"target": 34962
		},
		{
			"buffer": 0,
			"byteLength": 272160,
			"byteOffset": 455424,
			"target": 34962
		},
		{
			"buffer": 0,
			"byteLength": 181440,
			"byteOffset": 727584,
			"target": 34962
		},
		{
			"buffer": 0,
			"byteLength": 181440,
			"byteOffset": 909024,
			"target": 34962
		},
		{
			"buffer": 0,
			"byteLength": 3264,
			"byteOffset": 1090464,
			"target": 34963
		},
		{
			"buffer": 0,
			"byteLength": 19584,
			"byteOffset": 1093728,
			"target": 34962
		},
		{
			"buffer": 0,
			"byteLength": 19584,
			"byteOffset": 1113312,
			"target": 34962
		},
		{
			"buffer": 0,
			"byteLength": 13056,
			"byteOffset": 1132896,
			"target": 34962
		},
		{
			"buffer": 0,
			"byteLength": 3264,
			"byteOffset": 1145952,
			"target": 34963
		},
		{
			"buffer": 0,
			"byteLength": 19584,
			"byteOffset": 1149216,
			"target": 34962
		},
		{
			"buffer": 0,
			"byteLength": 19584,
			"byteOffset": 1168800,
			"target": 34962
		},
		{
			"buffer": 0,
			"byteLength": 13056,
			"byteOffset": 1188384,
			"target": 34962
		},
		{
			"buffer": 0,
			"byteLength": 3264,
			"byteOffset": 1201440,
			"target": 34963
		},
		{
			"buffer": 0,
			"byteLength": 19584,
			"byteOffset": 1204704,
			"target": 34962
		},
		{
			"buffer": 0,
			"byteLength": 19584,
			"byteOffset": 1224288,
			"target": 34962
		},
		{
			"buffer": 0,
			"byteLength": 13056,
			"byteOffset": 1243872,
			"target": 34962
		},
		{
			"buffer": 0,
			"byteLength": 3264,
			"byteOffset": 1256928,
			"target": 34963
		},
		{
			"buffer": 0,
			"byteLength": 19584,
			"byteOffset": 1260192,
			"target": 34962
		},
		{
			"buffer": 0,
			"byteLength": 19584,
			"byteOffset": 1279776,
			"target": 34962
		},
		{
			"buffer": 0,
			"byteLength": 13056,
			"byteOffset": 1299360,
			"target": 34962
		},
		{
			"buffer": 0,
			"byteLength": 1800,
			"byteOffset": 1312416,
			"target": 34963
		},
		{
			"buffer": 0,
			"byteLength": 10800,
			"byteOffset": 1314216,
			"target": 34962
		},
		{
			"buffer": 0,
			"byteLength": 10800,
			"byteOffset": 1325016,
			"target": 34962
		},
		{
			"buffer": 0,
			"byteLength": 7200,
			"byteOffset": 1335816,
			"target": 34962
		},
		{
			"buffer": 0,
			"byteLength": 7200,
			"byteOffset": 1343016,
			"target": 34962
		},
		{
			"buffer": 0,
			"byteLength": 1800,
			"byteOffset": 1350216,
			"target": 34963
		},
		{
			"buffer": 0,
			"byteLength": 10800,
			"byteOffset": 1352016,
			"target": 34962
		},
		{
			"buffer": 0,
			"byteLength": 10800,
			"byteOffset": 1362816,
			"target": 34962
		},
		{
			"buffer": 0,
			"byteLength": 1800,
			"byteOffset": 1373616,
			"target": 34963
		},
		{
			"buffer": 0,
			"byteLength": 10800,
			"byteOffset": 1375416,
			"target": 34962
		},
		{
			"buffer": 0,
			"byteLength": 10800,
			"byteOffset": 1386216,
			"target": 34962
		},
		{
			"buffer": 0,
			"byteLength": 1800,
			"byteOffset": 1397016,
			"target": 34963
		},
		{
			"buffer": 0,
			"byteLength": 10800,
			"byteOffset": 1398816,
			"target": 34962
		},
		{
			"buffer": 0,
			"byteLength": 21792,
			"byteOffset": 1409616,
			"target": 34963
		},
		{
			"buffer": 0,
			"byteLength": 130752,
			"byteOffset": 1431408,
			"target": 34962
		},
		{
			"buffer": 0,
			"byteLength": 130752,
			"byteOffset": 1562160,
			"target": 34962
		},
		{
			"buffer": 0,
			"byteLength": 87168,
			"byteOffset": 1692912,
			"target": 34962
		},
		{
			"buffer": 0,
			"byteLength": 87168,
			"byteOffset": 1780080,
			"target": 34962
		},
		{
			"buffer": 0,
			"byteLength": 3504,
			"byteOffset": 1867248,
			"target": 34963
		},
		{
			"buffer": 0,
			"byteLength": 21024,
			"byteOffset": 1870752,
			"target": 34962
		},
		{
			"buffer": 0,
			"byteLength": 21024,
			"byteOffset": 1891776,
			"target": 34962
		},
		{
			"buffer": 0,
			"byteLength": 14016,
			"byteOffset": 1912800,
			"target": 34962
		},
		{
			"buffer": 0,
			"byteLength": 14016,
			"byteOffset": 1926816,
			"target": 34962
		},
		{
			"buffer": 0,
			"byteLength": 4932,
			"byteOffset": 1940832,
			"target": 34963
		},
		{
			"buffer": 0,
			"byteLength": 29592,
			"byteOffset": 1945764,
			"target": 34962
		},
		{
			"buffer": 0,
			"byteLength": 29592,
			"byteOffset": 1975356,
			"target": 34962
		},
		{
			"buffer": 0,
			"byteLength": 19728,
			"byteOffset": 2004948,
			"target": 34962
		},
		{
			"buffer": 0,
			"byteLength": 19728,
			"byteOffset": 2024676,
			"target": 34962
		},
		{
			"buffer": 0,
			"byteLength": 3168,
			"byteOffset": 2044404,
			"target": 34963
		},
		{
			"buffer": 0,
			"byteLength": 19008,
			"byteOffset": 2047572,
			"target": 34962
		},
		{
			"buffer": 0,
			"byteLength": 19008,
			"byteOffset": 2066580,
			"target": 34962
		},
		{
			"buffer": 0,
			"byteLength": 12672,
			"byteOffset": 2085588,
			"target": 34962
		},
		{
			"buffer": 0,
			"byteLength": 12672,
			"byteOffset": 2098260,
			"target": 34962
		},
		{
			"buffer": 0,
			"byteLength": 720,
			"byteOffset": 2110932,
			"target": 34963
		},
		{
			"buffer": 0,
			"byteLength": 4320,
			"byteOffset": 2111652,
			"target": 34962
		},
		{
			"buffer": 0,
			"byteLength": 4320,
			"byteOffset": 2115972,
			"target": 34962
		},
		{
			"buffer": 0,
			"byteLength": 2880,
			"byteOffset": 2120292,
			"target": 34962
		},
		{
			"buffer": 0,
			"byteLength": 2880,
			"byteOffset": 2123172,
			"target": 34962
		},
		{
			"buffer": 0,
			"byteLength": 108,
			"byteOffset": 2126052,
			"target": 34963
		},
		{
			"buffer": 0,
			"byteLength": 1296,
			"byteOffset": 2126160,
			"target": 34962
		},
		{
			"buffer": 0,
			"byteLength": 1296,
			"byteOffset": 2127456,
			"target": 34962
		},
		{
			"buffer": 0,
			"byteLength": 864,
			"byteOffset": 2128752,
			"target": 34962
		},
		{
			"buffer": 0,
			"byteLength": 864,
			"byteOffset": 2129616,
			"target": 34962
		},
		{
			"buffer": 0,
			"byteLength": 864,
			"byteOffset": 2130480,
			"target": 34962
		}
	],
	"images": [
		{
			"uri": "WorldGridMaterial_BaseColor.png"
		},
		{
			"uri": "WorldGridMaterial_MetallicRoughness.png"
		},
		{
			"uri": "WorldGridMaterial_Normal.png"
		},
		{
			"uri": "CraneBase_D.png"
		},
		{
			"uri": "CraneBase_ORM.png"
		},
		{
			"uri": "CraneBase_N.png"
		},
		{
			"uri": "CraneTop_D.png"
		},
		{
			"uri": "CraneTop_ORM.png"
		},
		{
			"uri": "CraneTop_N.png"
		},
		{
			"uri": "T_tower_piece_02_BC.png"
		},
		{
			"uri": "T_tower_piece_01_ORM.png"
		},
		{
			"uri": "T_tower_piece_02_N.png"
		}
	],
	"materials": [
		{
			"name": "MI_CraneBase",
			"pbrMetallicRoughness":
			{
				"baseColorTexture":
				{
					"index": 0
				},
				"metallicRoughnessTexture":
				{
					"index": 1
				}
			},
			"normalTexture":
			{
				"index": 2
			},
			"occlusionTexture":
			{
				"index": 1
			},
			"doubleSided": true
		},
		{
			"name": "MI_CraneTop",
			"pbrMetallicRoughness":
			{
				"baseColorTexture":
				{
					"index": 3
				},
				"metallicRoughnessTexture":
				{
					"index": 4
				}
			},
			"normalTexture":
			{
				"index": 5
			},
			"occlusionTexture":
			{
				"index": 4
			},
			"doubleSided": true
		},
		{
			"name": "WorldGridMaterial",
			"pbrMetallicRoughness":
			{
				"baseColorTexture":
				{
					"index": 6
				},
				"metallicRoughnessTexture":
				{
					"index": 7
				}
			},
			"normalTexture":
			{
				"index": 8
			}
		},
		{
			"name": "MI_TCraneTile",
			"pbrMetallicRoughness":
			{
				"baseColorTexture":
				{
					"index": 9
				},
				"metallicRoughnessTexture":
				{
					"index": 10
				}
			},
			"normalTexture":
			{
				"index": 11
			},
			"occlusionTexture":
			{
				"index": 10
			},
			"doubleSided": true
		}
	],
	"meshes": [
		{
			"name": "SM_TowerBase_1",
			"primitives": [
				{
					"attributes":
					{
						"POSITION": 1,
						"NORMAL": 2,
						"TEXCOORD_0": 3
					},
					"indices": 0,
					"material": 0
				}
			]
		},
		{
			"name": "SM_TowerBase_3",
			"primitives": [
				{
					"attributes":
					{
						"POSITION": 5,
						"NORMAL": 6,
						"TEXCOORD_0": 7
					},
					"indices": 4,
					"material": 1
				},
				{
					"attributes":
					{
						"POSITION": 9,
						"NORMAL": 10,
						"TEXCOORD_0": 11
					},
					"indices": 8,
					"material": 2
				}
			]
		},
		{
			"name": "SM_TowerBase_2",
			"primitives": [
				{
					"attributes":
					{
						"POSITION": 13,
						"NORMAL": 14,
						"TEXCOORD_0": 15,
						"TEXCOORD_1": 16
					},
					"indices": 12,
					"material": 3
				}
			]
		},
		{
			"name": "SM_TowerBase_Part1",
			"primitives": [
				{
					"attributes":
					{
						"POSITION": 18,
						"NORMAL": 19,
						"TEXCOORD_0": 20
					},
					"indices": 17,
					"material": 0
				}
			]
		},
		{
			"name": "SM_TowerBase_Part2",
			"primitives": [
				{
					"attributes":
					{
						"POSITION": 22,
						"NORMAL": 23,
						"TEXCOORD_0": 24
					},
					"indices": 21,
					"material": 0
				}
			]
		},
		{
			"name": "SM_TowerBase_Part3",
			"primitives": [
				{
					"attributes":
					{
						"POSITION": 26,
						"NORMAL": 27,
						"TEXCOORD_0": 28
					},
					"indices": 25,
					"material": 0
				}
			]
		},
		{
			"name": "SM_TowerBase_Part4",
			"primitives": [
				{
					"attributes":
					{
						"POSITION": 30,
						"NORMAL": 31,
						"TEXCOORD_0": 32
					},
					"indices": 29,
					"material": 0
				}
			]
		},
		{
			"name": "SM_TowerBase_Screws1",
			"primitives": [
				{
					"attributes":
					{
						"POSITION": 34,
						"NORMAL": 35,
						"TEXCOORD_0": 36,
						"TEXCOORD_1": 37
					},
					"indices": 33,
					"material": 2
				}
			]
		},
		{
			"name": "SM_TowerBase_Screws2",
			"primitives": [
				{
					"attributes":
					{
						"POSITION": 39,
						"NORMAL": 40,
						"TEXCOORD_0": 36,
						"TEXCOORD_1": 37
					},
					"indices": 38,
					"material": 2
				}
			]
		},
		{
			"name": "SM_TowerBase_Screws3",
			"primitives": [
				{
					"attributes":
					{
						"POSITION": 42,
						"NORMAL": 43,
						"TEXCOORD_0": 36,
						"TEXCOORD_1": 37
					},
					"indices": 41,
					"material": 2
				}
			]
		},
		{
			"name": "SM_TowerBase_Screws4",
			"primitives": [
				{
					"attributes":
					{
						"POSITION": 45,
						"NORMAL": 43,
						"TEXCOORD_0": 36,
						"TEXCOORD_1": 37
					},
					"indices": 44,
					"material": 2
				}
			]
		},
		{
			"name": "SM_TowerTop",
			"primitives": [
				{
					"attributes":
					{
						"POSITION": 47,
						"NORMAL": 48,
						"TEXCOORD_0": 49,
						"TEXCOORD_1": 50
					},
					"indices": 46,
					"material": 3
				},
				{
					"attributes":
					{
						"POSITION": 52,
						"NORMAL": 53,
						"TEXCOORD_0": 54,
						"TEXCOORD_1": 55
					},
					"indices": 51,
					"material": 1
				},
				{
					"attributes":
					{
						"POSITION": 57,
						"NORMAL": 58,
						"TEXCOORD_0": 59,
						"TEXCOORD_1": 60
					},
					"indices": 56,
					"material": 0
				}
			]
		},
		{
			"name": "SM_TowerHook",
			"primitives": [
				{
					"attributes":
					{
						"POSITION": 62,
						"NORMAL": 63,
						"TEXCOORD_0": 64,
						"TEXCOORD_1": 65,
						"TEXCOORD_2": 65
					},
					"indices": 61,
					"material": 1
				},
				{
					"attributes":
					{
						"POSITION": 67,
						"NORMAL": 68,
						"TEXCOORD_0": 69,
						"TEXCOORD_1": 70,
						"TEXCOORD_2": 70
					},
					"indices": 66,
					"material": 0
				},
				{
					"attributes":
					{
						"POSITION": 72,
						"NORMAL": 73,
						"TEXCOORD_0": 74,
						"TEXCOORD_1": 75,
						"TEXCOORD_2": 76
					},
					"indices": 71,
					"material": 2
				}
			]
		}
	],
	"nodes": [
		{
			"name": "CraneUnreal_Cube_020_Blueprint",
			"children": [ 1, 3, 4, 5, 6, 7, 8, 9, 10, 11, 12 ]
		},
		{
			"name": "StaticMeshComponent1",
			"mesh": 0,
			"children": [ 2 ]
		},
		{
			"name": "SM_TowerBase_3",
			"mesh": 1
		},
		{
			"name": "SM_TowerBase_2",
			"mesh": 2
		},
		{
			"name": "SM_TowerBase_Part1",
			"mesh": 3
		},
		{
			"name": "SM_TowerBase_Part2",
			"mesh": 4
		},
		{
			"name": "SM_TowerBase_Part3",
			"mesh": 5
		},
		{
			"name": "SM_TowerBase_Part4",
			"mesh": 6
		},
		{
			"name": "SM_TowerBase_Screws1",
			"translation": [ 0, 0.149999991, 0.099999994 ],
			"mesh": 7
		},
		{
			"name": "SM_TowerBase_Screws2",
			"translation": [ 0.049999997, 0.149999991, 0.149999991 ],
			"mesh": 8
		},
		{
			"name": "SM_TowerBase_Screws3",
			"translation": [ -0.099999994, 0.149999991, 0 ],
			"mesh": 9
		},
		{
			"name": "SM_TowerBase_Screws4",
			"translation": [ 0, 0.149999991, 0.049999997 ],
			"mesh": 10
		},
		{
			"name": "SM_TowerTop",
			"translation": [ 0, 33.1499977, 0 ],
			"rotation": [ -0, -0.991444767, -0, 0.13052699 ],
			"mesh": 11,
			"children": [ 13 ]
		},
		{
			"name": "SM_TowerHook",
			"translation": [ 0, 3.89999986, 9.80000019 ],
			"mesh": 12
		}
	],
	"samplers": [
		{
			"minFilter": 9987,
			"magFilter": 9729
		}
	],
	"scenes": [
		{
			"name": "proto",
			"nodes": [ 0 ]
		}
	],
	"textures": [
		{
			"name": "CraneBase_D",
			"sampler": 0,
			"source": 3
		},
		{
			"name": "CraneBase_ORM",
			"sampler": 0,
			"source": 4
		},
		{
			"name": "CraneBase_N",
			"sampler": 0,
			"source": 5
		},
		{
			"name": "CraneTop_D",
			"sampler": 0,
			"source": 6
		},
		{
			"name": "CraneTop_ORM",
			"sampler": 0,
			"source": 7
		},
		{
			"name": "CraneTop_N",
			"sampler": 0,
			"source": 8
		},
		{
			"name": "WorldGridMaterial_BaseColor",
			"sampler": 0,
			"source": 0
		},
		{
			"name": "WorldGridMaterial_MetallicRoughness",
			"sampler": 0,
			"source": 1
		},
		{
			"name": "WorldGridMaterial_Normal",
			"sampler": 0,
			"source": 2
		},
		{
			"name": "T_tower_piece_02_BC",
			"sampler": 0,
			"source": 9
		},
		{
			"name": "T_tower_piece_01_ORM",
			"sampler": 0,
			"source": 10
		},
		{
			"name": "T_tower_piece_02_N",
			"sampler": 0,
			"source": 11
		}
	]
}