{
	"asset":
	{
		"version": "2.0",
		"generator": "Unreal Engine 5.5.4"
	},
	"scene": 0,
	"accessors": [
		{
			"bufferView": 0,
			"count": 2376,
			"type": "SCALAR",
			"componentType": 5123
		},
		{
			"bufferView": 1,
			"count": 1490,
			"type": "VEC3",
			"componentType": 5126,
			"min": [ 1.28746005e-05, -1.0511226e-21, -1.71661341e-05 ],
			"max": [ 647.999878, 4.84959973e-14, 791.999756 ]
		},
		{
			"bufferView": 2,
			"count": 1490,
			"type": "VEC3",
			"componentType": 5126
		},
		{
			"bufferView": 3,
			"count": 1490,
			"type": "VEC4",
			"componentType": 5126
		},
		{
			"bufferView": 4,
			"count": 1490,
			"type": "VEC2",
			"componentType": 5126
		},
		{
			"bufferView": 5,
			"count": 1490,
			"type": "VEC2",
			"componentType": 5126
		},
		{
			"bufferView": 6,
			"count": 1632,
			"type": "SCALAR",
			"componentType": 5123
		},
		{
			"bufferView": 7,
			"count": 868,
			"type": "VEC3",
			"componentType": 5126,
			"min": [ 45.8031807, -1.06817079, 95.7214737 ],
			"max": [ 602.196594, 231.439514, 696.278259 ]
		},
		{
			"bufferView": 8,
			"count": 868,
			"type": "VEC3",
			"componentType": 5126
		},
		{
			"bufferView": 9,
			"count": 868,
			"type": "VEC4",
			"componentType": 5126
		},
		{
			"bufferView": 10,
			"count": 868,
			"type": "VEC2",
			"componentType": 5126
		},
		{
			"bufferView": 11,
			"count": 868,
			"type": "VEC2",
			"componentType": 5126
		},
		{
			"bufferView": 12,
			"count": 56520,
			"type": "SCALAR",
			"componentType": 5123
		},
		{
			"bufferView": 13,
			"count": 32936,
			"type": "VEC3",
			"componentType": 5126,
			"min": [ 2.13958693, -2.87783551, 2.66705489 ],
			"max": [ 645.860168, 237.654541, 789.332642 ]
		},
		{
			"bufferView": 14,
			"count": 32936,
			"type": "VEC3",
			"componentType": 5126
		},
		{
			"bufferView": 15,
			"count": 32936,
			"type": "VEC4",
			"componentType": 5126
		},
		{
			"bufferView": 16,
			"count": 32936,
			"type": "VEC2",
			"componentType": 5126
		},
		{
			"bufferView": 17,
			"count": 32936,
			"type": "VEC2",
			"componentType": 5126
		},
		{
			"bufferView": 18,
			"count": 7272,
			"type": "SCALAR",
			"componentType": 5123
		},
		{
			"bufferView": 19,
			"count": 3468,
			"type": "VEC3",
			"componentType": 5126,
			"min": [ 7.1167016, 52.4593239, 8.34878349 ],
			"max": [ 640.883118, 228.934753, 783.65094 ]
		},
		{
			"bufferView": 20,
			"count": 3468,
			"type": "VEC3",
			"componentType": 5126
		},
		{
			"bufferView": 21,
			"count": 3468,
			"type": "VEC4",
			"componentType": 5126
		},
		{
			"bufferView": 22,
			"count": 3468,
			"type": "VEC2",
			"componentType": 5126
		},
		{
			"bufferView": 23,
			"count": 3468,
			"type": "VEC2",
			"componentType": 5126
		},
		{
			"bufferView": 24,
			"count": 3294,
			"type": "SCALAR",
			"componentType": 5123
		},
		{
			"bufferView": 25,
			"count": 1608,
			"type": "VEC3",
			"componentType": 5126,
			"min": [ 11.5662661, -0.606516063, 2.66705489 ],
			"max": [ 642.011841, 119.505127, 789.332642 ]
		},
		{
			"bufferView": 26,
			"count": 1608,
			"type": "VEC3",
			"componentType": 5126
		},
		{
			"bufferView": 27,
			"count": 1608,
			"type": "VEC4",
			"componentType": 5126
		},
		{
			"bufferView": 28,
			"count": 1608,
			"type": "VEC2",
			"componentType": 5126
		},
		{
			"bufferView": 29,
			"count": 1608,
			"type": "VEC2",
			"componentType": 5126
		},
		{
			"bufferView": 30,
			"count": 1596,
			"type": "SCALAR",
			"componentType": 5123
		},
		{
			"bufferView": 31,
			"count": 828,
			"type": "VEC3",
			"componentType": 5126,
			"min": [ 6.97727823, 2.97691083, 153.981552 ],
			"max": [ 641.022461, 208.152924, 638.018188 ]
		},
		{
			"bufferView": 32,
			"count": 828,
			"type": "VEC3",
			"componentType": 5126
		},
		{
			"bufferView": 33,
			"count": 828,
			"type": "VEC4",
			"componentType": 5126
		},
		{
			"bufferView": 34,
			"count": 828,
			"type": "VEC2",
			"componentType": 5126
		},
		{
			"bufferView": 35,
			"count": 828,
			"type": "VEC2",
			"componentType": 5126
		},
		{
			"bufferView": 36,
			"count": 11694,
			"type": "SCALAR",
			"componentType": 5123
		},
		{
			"bufferView": 37,
			"count": 7210,
			"type": "VEC3",
			"componentType": 5126,
			"min": [ 2.41809034, -0.665129364, 4.01977634 ],
			"max": [ 645.581665, 110.823677, 787.979919 ]
		},
		{
			"bufferView": 38,
			"count": 7210,
			"type": "VEC3",
			"componentType": 5126
		},
		{
			"bufferView": 39,
			"count": 7210,
			"type": "VEC4",
			"componentType": 5126
		},
		{
			"bufferView": 40,
			"count": 7210,
			"type": "VEC2",
			"componentType": 5126
		},
		{
			"bufferView": 41,
			"count": 7210,
			"type": "VEC2",
			"componentType": 5126
		}
	],
	"buffers": [
		{
			"uri": "BuildingSphere_1.bin",
			"byteLength": 2879616
		}
	],
	"bufferViews": [
		{
			"buffer": 0,
			"byteLength": 4752,
			"target": 34963
		},
		{
			"buffer": 0,
			"byteLength": 17880,
			"byteOffset": 4752,
			"target": 34962
		},
		{
			"buffer": 0,
			"byteLength": 17880,
			"byteOffset": 22632,
			"target": 34962
		},
		{
			"buffer": 0,
			"byteLength": 23840,
			"byteOffset": 40512,
			"target": 34962
		},
		{
			"buffer": 0,
			"byteLength": 11920,
			"byteOffset": 64352,
			"target": 34962
		},
		{
			"buffer": 0,
			"byteLength": 11920,
			"byteOffset": 76272,
			"target": 34962
		},
		{
			"buffer": 0,
			"byteLength": 3264,
			"byteOffset": 88192,
			"target": 34963
		},
		{
			"buffer": 0,
			"byteLength": 10416,
			"byteOffset": 91456,
			"target": 34962
		},
		{
			"buffer": 0,
			"byteLength": 10416,
			"byteOffset": 101872,
			"target": 34962
		},
		{
			"buffer": 0,
			"byteLength": 13888,
			"byteOffset": 112288,
			"target": 34962
		},
		{
			"buffer": 0,
			"byteLength": 6944,
			"byteOffset": 126176,
			"target": 34962
		},
		{
			"buffer": 0,
			"byteLength": 6944,
			"byteOffset": 133120,
			"target": 34962
		},
		{
			"buffer": 0,
			"byteLength": 113040,
			"byteOffset": 140064,
			"target": 34963
		},
		{
			"buffer": 0,
			"byteLength": 395232,
			"byteOffset": 253104,
			"target": 34962
		},
		{
			"buffer": 0,
			"byteLength": 395232,
			"byteOffset": 648336,
			"target": 34962
		},
		{
			"buffer": 0,
			"byteLength": 526976,
			"byteOffset": 1043568,
			"target": 34962
		},
		{
			"buffer": 0,
			"byteLength": 263488,
			"byteOffset": 1570544,
			"target": 34962
		},
		{
			"buffer": 0,
			"byteLength": 263488,
			"byteOffset": 1834032,
			"target": 34962
		},
		{
			"buffer": 0,
			"byteLength": 14544,
			"byteOffset": 2097520,
			"target": 34963
		},
		{
			"buffer": 0,
			"byteLength": 41616,
			"byteOffset": 2112064,
			"target": 34962
		},
		{
			"buffer": 0,
			"byteLength": 41616,
			"byteOffset": 2153680,
			"target": 34962
		},
		{
			"buffer": 0,
			"byteLength": 55488,
			"byteOffset": 2195296,
			"target": 34962
		},
		{
			"buffer": 0,
			"byteLength": 27744,
			"byteOffset": 2250784,
			"target": 34962
		},
		{
			"buffer": 0,
			"byteLength": 27744,
			"byteOffset": 2278528,
			"target": 34962
		},
		{
			"buffer": 0,
			"byteLength": 6588,
			"byteOffset": 2306272,
			"target": 34963
		},
		{
			"buffer": 0,
			"byteLength": 19296,
			"byteOffset": 2312860,
			"target": 34962
		},
		{
			"buffer": 0,
			"byteLength": 19296,
			"byteOffset": 2332156,
			"target": 34962
		},
		{
			"buffer": 0,
			"byteLength": 25728,
			"byteOffset": 2351452,
			"target": 34962
		},
		{
			"buffer": 0,
			"byteLength": 12864,
			"byteOffset": 2377180,
			"target": 34962
		},
		{
			"buffer": 0,
			"byteLength": 12864,
			"byteOffset": 2390044,
			"target": 34962
		},
		{
			"buffer": 0,
			"byteLength": 3192,
			"byteOffset": 2402908,
			"target": 34963
		},
		{
			"buffer": 0,
			"byteLength": 9936,
			"byteOffset": 2406100,
			"target": 34962
		},
		{
			"buffer": 0,
			"byteLength": 9936,
			"byteOffset": 2416036,
			"target": 34962
		},
		{
			"buffer": 0,
			"byteLength": 13248,
			"byteOffset": 2425972,
			"target": 34962
		},
		{
			"buffer": 0,
			"byteLength": 6624,
			"byteOffset": 2439220,
			"target": 34962
		},
		{
			"buffer": 0,
			"byteLength": 6624,
			"byteOffset": 2445844,
			"target": 34962
		},
		{
			"buffer": 0,
			"byteLength": 23388,
			"byteOffset": 2452468,
			"target": 34963
		},
		{
			"buffer": 0,
			"byteLength": 86520,
			"byteOffset": 2475856,
			"target": 34962
		},
		{
			"buffer": 0,
			"byteLength": 86520,
			"byteOffset": 2562376,
			"target": 34962
		},
		{
			"buffer": 0,
			"byteLength": 115360,
			"byteOffset": 2648896,
			"target": 34962
		},
		{
			"buffer": 0,
			"byteLength": 57680,
			"byteOffset": 2764256,
			"target": 34962
		},
		{
			"buffer": 0,
			"byteLength": 57680,
			"byteOffset": 2821936,
			"target": 34962
		}
	],
	"images": [
		{
			"uri": "T_Roads_D.png"
		},
		{
			"uri": "T_Roads_ORM_Linear.png"
		},
		{
			"uri": "T_Roads_N.png"
		},
		{
			"uri": "T_BGBuildingsFacade3_D.png"
		},
		{
			"uri": "T_BGBuildingsFacade3_ORM.png"
		},
		{
			"uri": "T_BGBuildingsFacade3_N.png"
		},
		{
			"uri": "T_BuildingsAtlas_D.png"
		},
		{
			"uri": "T_BuildingsAtlas_ORM_Linear.png"
		},
		{
			"uri": "T_BuildingsAtlas_N.png"
		},
		{
			"uri": "T_BuildingAtlas2_D.png"
		},
		{
			"uri": "T_BuildingAtlas2_ORM.png"
		},
		{
			"uri": "T_BuildingAtlas2_N.png"
		},
		{
			"uri": "T_BGBuildingsFacade2_D.png"
		},
		{
			"uri": "T_BGBuildingsFacade2_ORM_Linear.png"
		},
		{
			"uri": "T_BGBuildingsFacade2_N.png"
		},
		{
			"uri": "T_BGBuildingsFacade4_D.png"
		},
		{
			"uri": "T_BGBuildingsFacade4_ORM.png"
		},
		{
			"uri": "T_BGBuildingsFacade4_N.png"
		},
		{
			"uri": "T_BGBuildingsFacade1_D.png"
		},
		{
			"uri": "T_BGBuildingsFacade1_ORM.png"
		},
		{
			"uri": "T_BGBuildingsFacade1_N.png"
		}
	],
	"materials": [
		{
			"name": "MI_Roads",
			"pbrMetallicRoughness":
			{
				"baseColorTexture":
				{
					"index": 0
				},
				"metallicRoughnessTexture":
				{
					"index": 1
				}
			},
			"normalTexture":
			{
				"index": 2
			},
			"occlusionTexture":
			{
				"index": 1
			},
			"doubleSided": true
		},
		{
			"name": "MI_Facade3",
			"pbrMetallicRoughness":
			{
				"baseColorTexture":
				{
					"index": 3
				},
				"metallicRoughnessTexture":
				{
					"index": 4
				}
			},
			"normalTexture":
			{
				"index": 5
			},
			"occlusionTexture":
			{
				"index": 4
			},
			"doubleSided": true
		},
		{
			"name": "MI_BackgroundbuildingAtlas",
			"pbrMetallicRoughness":
			{
				"baseColorTexture":
				{
					"index": 6
				},
				"metallicRoughnessTexture":
				{
					"index": 7
				}
			},
			"normalTexture":
			{
				"index": 8
			},
			"occlusionTexture":
			{
				"index": 7
			},
			"doubleSided": true
		},
		{
			"name": "MI_BuildingsAtlas2",
			"pbrMetallicRoughness":
			{
				"baseColorTexture":
				{
					"index": 9
				},
				"metallicRoughnessTexture":
				{
					"index": 10
				}
			},
			"normalTexture":
			{
				"index": 11
			},
			"occlusionTexture":
			{
				"index": 10
			},
			"doubleSided": true
		},
		{
			"name": "MI_BuildingsFacade2",
			"pbrMetallicRoughness":
			{
				"baseColorTexture":
				{
					"index": 12
				},
				"metallicRoughnessTexture":
				{
					"index": 13
				}
			},
			"normalTexture":
			{
				"index": 14
			},
			"occlusionTexture":
			{
				"index": 13
			},
			"doubleSided": true
		},
		{
			"name": "MI_BuildingsFacade4",
			"pbrMetallicRoughness":
			{
				"baseColorTexture":
				{
					"index": 15
				},
				"metallicRoughnessTexture":
				{
					"index": 16
				}
			},
			"normalTexture":
			{
				"index": 17
			},
			"occlusionTexture":
			{
				"index": 16
			},
			"doubleSided": true
		},
		{
			"name": "MI_BGBuildingsFacade1",
			"pbrMetallicRoughness":
			{
				"baseColorTexture":
				{
					"index": 18
				},
				"metallicRoughnessTexture":
				{
					"index": 19
				}
			},
			"normalTexture":
			{
				"index": 20
			},
			"occlusionTexture":
			{
				"index": 19
			},
			"doubleSided": true
		}
	],
	"meshes": [
		{
			"name": "SM_CityPiece",
			"primitives": [
				{
					"attributes":
					{
						"POSITION": 1,
						"NORMAL": 2,
						"TANGENT": 3,
						"TEXCOORD_0": 4,
						"TEXCOORD_1": 5
					},
					"indices": 0,
					"material": 0
				},
				{
					"attributes":
					{
						"POSITION": 7,
						"NORMAL": 8,
						"TANGENT": 9,
						"TEXCOORD_0": 10,
						"TEXCOORD_1": 11
					},
					"indices": 6,
					"material": 1
				},
				{
					"attributes":
					{
						"POSITION": 13,
						"NORMAL": 14,
						"TANGENT": 15,
						"TEXCOORD_0": 16,
						"TEXCOORD_1": 17
					},
					"indices": 12,
					"material": 2
				},
				{
					"attributes":
					{
						"POSITION": 19,
						"NORMAL": 20,
						"TANGENT": 21,
						"TEXCOORD_0": 22,
						"TEXCOORD_1": 23
					},
					"indices": 18,
					"material": 3
				},
				{
					"attributes":
					{
						"POSITION": 25,
						"NORMAL": 26,
						"TANGENT": 27,
						"TEXCOORD_0": 28,
						"TEXCOORD_1": 29
					},
					"indices": 24,
					"material": 4
				},
				{
					"attributes":
					{
						"POSITION": 31,
						"NORMAL": 32,
						"TANGENT": 33,
						"TEXCOORD_0": 34,
						"TEXCOORD_1": 35
					},
					"indices": 30,
					"material": 5
				},
				{
					"attributes":
					{
						"POSITION": 37,
						"NORMAL": 38,
						"TANGENT": 39,
						"TEXCOORD_0": 40,
						"TEXCOORD_1": 41
					},
					"indices": 36,
					"material": 6
				}
			]
		}
	],
	"nodes": [
		{
			"name": "cityPiece",
			"mesh": 0
		}
	],
	"samplers": [
		{
			"minFilter": 9987,
			"magFilter": 9729
		}
	],
	"scenes": [
		{
			"name": "proto",
			"nodes": [ 0 ]
		}
	],
	"textures": [
		{
			"name": "T_Roads_D",
			"sampler": 0,
			"source": 0
		},
		{
			"name": "T_Roads_ORM_Linear",
			"sampler": 0,
			"source": 1
		},
		{
			"name": "T_Roads_N",
			"sampler": 0,
			"source": 2
		},
		{
			"name": "T_BGBuildingsFacade3_D",
			"sampler": 0,
			"source": 3
		},
		{
			"name": "T_BGBuildingsFacade3_ORM",
			"sampler": 0,
			"source": 4
		},
		{
			"name": "T_BGBuildingsFacade3_N",
			"sampler": 0,
			"source": 5
		},
		{
			"name": "T_BuildingsAtlas_D",
			"sampler": 0,
			"source": 6
		},
		{
			"name": "T_BuildingsAtlas_ORM_Linear",
			"sampler": 0,
			"source": 7
		},
		{
			"name": "T_BuildingsAtlas_N",
			"sampler": 0,
			"source": 8
		},
		{
			"name": "T_BuildingAtlas2_D",
			"sampler": 0,
			"source": 9
		},
		{
			"name": "T_BuildingAtlas2_ORM",
			"sampler": 0,
			"source": 10
		},
		{
			"name": "T_BuildingAtlas2_N",
			"sampler": 0,
			"source": 11
		},
		{
			"name": "T_BGBuildingsFacade2_D",
			"sampler": 0,
			"source": 12
		},
		{
			"name": "T_BGBuildingsFacade2_ORM_Linear",
			"sampler": 0,
			"source": 13
		},
		{
			"name": "T_BGBuildingsFacade2_N",
			"sampler": 0,
			"source": 14
		},
		{
			"name": "T_BGBuildingsFacade4_D",
			"sampler": 0,
			"source": 15
		},
		{
			"name": "T_BGBuildingsFacade4_ORM",
			"sampler": 0,
			"source": 16
		},
		{
			"name": "T_BGBuildingsFacade4_N",
			"sampler": 0,
			"source": 17
		},
		{
			"name": "T_BGBuildingsFacade1_D",
			"sampler": 0,
			"source": 18
		},
		{
			"name": "T_BGBuildingsFacade1_ORM",
			"sampler": 0,
			"source": 19
		},
		{
			"name": "T_BGBuildingsFacade1_N",
			"sampler": 0,
			"source": 20
		}
	]
}