{
	"asset":{
		"generator":"Khronos glTF Blender I/O v4.3.47",
		"version":"2.0"
	},
	"scene":0,
	"scenes":[
		{
			"name":"Scene",
			"nodes":[
				0
			]
		}
	],
	"nodes":[
		{
			"mesh":0,
			"name":"cityPiece4",
			"translation":[
				0,
				0,
				-4.3274946212768555
			]
		}
	],
	"materials":[
		{
			"doubleSided":true,
			"name":"MI_Roads",
			"normalTexture":{
				"index":0
			},
			"occlusionTexture":{
				"index":1
			},
			"pbrMetallicRoughness":{
				"baseColorTexture":{
					"index":2
				},
				"metallicRoughnessTexture":{
					"index":1
				}
			}
		},
		{
			"doubleSided":true,
			"name":"MI_Facade3",
			"normalTexture":{
				"index":3
			},
			"occlusionTexture":{
				"index":4
			},
			"pbrMetallicRoughness":{
				"baseColorTexture":{
					"index":5
				},
				"metallicRoughnessTexture":{
					"index":4
				}
			}
		},
		{
			"doubleSided":true,
			"name":"MI_BackgroundbuildingAtlas",
			"normalTexture":{
				"index":6
			},
			"occlusionTexture":{
				"index":7
			},
			"pbrMetallicRoughness":{
				"baseColorTexture":{
					"index":8
				},
				"metallicRoughnessTexture":{
					"index":7
				}
			}
		},
		{
			"doubleSided":true,
			"name":"MI_BuildingsAtlas2",
			"normalTexture":{
				"index":9
			},
			"occlusionTexture":{
				"index":10
			},
			"pbrMetallicRoughness":{
				"baseColorTexture":{
					"index":11
				},
				"metallicRoughnessTexture":{
					"index":10
				}
			}
		},
		{
			"doubleSided":true,
			"name":"MI_BuildingsFacade2",
			"normalTexture":{
				"index":12
			},
			"occlusionTexture":{
				"index":13
			},
			"pbrMetallicRoughness":{
				"baseColorTexture":{
					"index":14
				},
				"metallicRoughnessTexture":{
					"index":13
				}
			}
		},
		{
			"doubleSided":true,
			"name":"MI_BuildingsFacade4",
			"normalTexture":{
				"index":15
			},
			"occlusionTexture":{
				"index":16
			},
			"pbrMetallicRoughness":{
				"baseColorTexture":{
					"index":17
				},
				"metallicRoughnessTexture":{
					"index":16
				}
			}
		},
		{
			"doubleSided":true,
			"name":"MI_BGBuildingsFacade1",
			"normalTexture":{
				"index":18
			},
			"occlusionTexture":{
				"index":19
			},
			"pbrMetallicRoughness":{
				"baseColorTexture":{
					"index":20
				},
				"metallicRoughnessTexture":{
					"index":19
				}
			}
		}
	],
	"meshes":[
		{
			"name":"SM_CityPiece",
			"primitives":[
				{
					"attributes":{
						"POSITION":0,
						"NORMAL":1,
						"TEXCOORD_0":2,
						"TEXCOORD_1":3
					},
					"indices":4,
					"material":0
				},
				{
					"attributes":{
						"POSITION":5,
						"NORMAL":6,
						"TEXCOORD_0":7,
						"TEXCOORD_1":8
					},
					"indices":9,
					"material":1
				},
				{
					"attributes":{
						"POSITION":10,
						"NORMAL":11,
						"TEXCOORD_0":12,
						"TEXCOORD_1":13
					},
					"indices":14,
					"material":2
				},
				{
					"attributes":{
						"POSITION":15,
						"NORMAL":16,
						"TEXCOORD_0":17,
						"TEXCOORD_1":18
					},
					"indices":19,
					"material":3
				},
				{
					"attributes":{
						"POSITION":20,
						"NORMAL":21,
						"TEXCOORD_0":22,
						"TEXCOORD_1":23
					},
					"indices":24,
					"material":4
				},
				{
					"attributes":{
						"POSITION":25,
						"NORMAL":26,
						"TEXCOORD_0":27,
						"TEXCOORD_1":28
					},
					"indices":29,
					"material":5
				},
				{
					"attributes":{
						"POSITION":30,
						"NORMAL":31,
						"TEXCOORD_0":32,
						"TEXCOORD_1":33
					},
					"indices":34,
					"material":6
				}
			]
		}
	],
	"textures":[
		{
			"sampler":0,
			"source":0
		},
		{
			"sampler":0,
			"source":1
		},
		{
			"sampler":0,
			"source":2
		},
		{
			"sampler":0,
			"source":3
		},
		{
			"sampler":0,
			"source":4
		},
		{
			"sampler":0,
			"source":5
		},
		{
			"sampler":0,
			"source":6
		},
		{
			"sampler":0,
			"source":7
		},
		{
			"sampler":0,
			"source":8
		},
		{
			"sampler":0,
			"source":9
		},
		{
			"sampler":0,
			"source":10
		},
		{
			"sampler":0,
			"source":11
		},
		{
			"sampler":0,
			"source":12
		},
		{
			"sampler":0,
			"source":13
		},
		{
			"sampler":0,
			"source":14
		},
		{
			"sampler":0,
			"source":15
		},
		{
			"sampler":0,
			"source":16
		},
		{
			"sampler":0,
			"source":17
		},
		{
			"sampler":0,
			"source":18
		},
		{
			"sampler":0,
			"source":19
		},
		{
			"sampler":0,
			"source":20
		}
	],
	"images":[
		{
			"mimeType":"image/png",
			"name":"T_Roads_N",
			"uri":"T_Roads_N.png"
		},
		{
			"mimeType":"image/png",
			"name":"T_Roads_ORM_Linear",
			"uri":"T_Roads_ORM_Linear.png"
		},
		{
			"mimeType":"image/png",
			"name":"T_Roads_D",
			"uri":"T_Roads_D.png"
		},
		{
			"mimeType":"image/png",
			"name":"T_BGBuildingsFacade3_N",
			"uri":"T_BGBuildingsFacade3_N.png"
		},
		{
			"mimeType":"image/png",
			"name":"T_BGBuildingsFacade3_ORM",
			"uri":"T_BGBuildingsFacade3_ORM.png"
		},
		{
			"mimeType":"image/png",
			"name":"T_BGBuildingsFacade3_D",
			"uri":"T_BGBuildingsFacade3_D.png"
		},
		{
			"mimeType":"image/png",
			"name":"T_BuildingsAtlas_N",
			"uri":"T_BuildingsAtlas_N.png"
		},
		{
			"mimeType":"image/png",
			"name":"T_BuildingsAtlas_ORM_Linear",
			"uri":"T_BuildingsAtlas_ORM_Linear.png"
		},
		{
			"mimeType":"image/png",
			"name":"T_BuildingsAtlas_D",
			"uri":"T_BuildingsAtlas_D.png"
		},
		{
			"mimeType":"image/png",
			"name":"T_BuildingAtlas2_N",
			"uri":"T_BuildingAtlas2_N.png"
		},
		{
			"mimeType":"image/png",
			"name":"T_BuildingAtlas2_ORM",
			"uri":"T_BuildingAtlas2_ORM.png"
		},
		{
			"mimeType":"image/png",
			"name":"T_BuildingAtlas2_D",
			"uri":"T_BuildingAtlas2_D.png"
		},
		{
			"mimeType":"image/png",
			"name":"T_BGBuildingsFacade2_N",
			"uri":"T_BGBuildingsFacade2_N.png"
		},
		{
			"mimeType":"image/png",
			"name":"T_BGBuildingsFacade2_ORM_Linear",
			"uri":"T_BGBuildingsFacade2_ORM_Linear.png"
		},
		{
			"mimeType":"image/png",
			"name":"T_BGBuildingsFacade2_D",
			"uri":"T_BGBuildingsFacade2_D.png"
		},
		{
			"mimeType":"image/png",
			"name":"T_BGBuildingsFacade4_N",
			"uri":"T_BGBuildingsFacade4_N.png"
		},
		{
			"mimeType":"image/png",
			"name":"T_BGBuildingsFacade4_ORM",
			"uri":"T_BGBuildingsFacade4_ORM.png"
		},
		{
			"mimeType":"image/png",
			"name":"T_BGBuildingsFacade4_D",
			"uri":"T_BGBuildingsFacade4_D.png"
		},
		{
			"mimeType":"image/png",
			"name":"T_BGBuildingsFacade1_N",
			"uri":"T_BGBuildingsFacade1_N.png"
		},
		{
			"mimeType":"image/png",
			"name":"T_BGBuildingsFacade1_ORM",
			"uri":"T_BGBuildingsFacade1_ORM.png"
		},
		{
			"mimeType":"image/png",
			"name":"T_BGBuildingsFacade1_D",
			"uri":"T_BGBuildingsFacade1_D.png"
		}
	],
	"accessors":[
		{
			"bufferView":0,
			"componentType":5126,
			"count":1490,
			"max":[
				396.94671630859375,
				-1.0752834896265995e-05,
				328.1693115234375
			],
			"min":[
				-395.05328369140625,
				-1.0752834896265995e-05,
				-319.83087158203125
			],
			"type":"VEC3"
		},
		{
			"bufferView":1,
			"componentType":5126,
			"count":1490,
			"type":"VEC3"
		},
		{
			"bufferView":2,
			"componentType":5126,
			"count":1490,
			"type":"VEC2"
		},
		{
			"bufferView":3,
			"componentType":5126,
			"count":1490,
			"type":"VEC2"
		},
		{
			"bufferView":4,
			"componentType":5123,
			"count":2376,
			"type":"SCALAR"
		},
		{
			"bufferView":5,
			"componentType":5126,
			"count":868,
			"max":[
				301.2251892089844,
				166.34713745117188,
				282.36590576171875
			],
			"min":[
				-299.33172607421875,
				-0.7677584886550903,
				-274.0275573730469
			],
			"type":"VEC3"
		},
		{
			"bufferView":6,
			"componentType":5126,
			"count":868,
			"type":"VEC3"
		},
		{
			"bufferView":7,
			"componentType":5126,
			"count":868,
			"type":"VEC2"
		},
		{
			"bufferView":8,
			"componentType":5126,
			"count":868,
			"type":"VEC2"
		},
		{
			"bufferView":9,
			"componentType":5123,
			"count":1632,
			"type":"SCALAR"
		},
		{
			"bufferView":10,
			"componentType":5126,
			"count":32978,
			"max":[
				394.2795715332031,
				170.81419372558594,
				326.0294189453125
			],
			"min":[
				-392.3861083984375,
				-2.0684549808502197,
				-317.69110107421875
			],
			"type":"VEC3"
		},
		{
			"bufferView":11,
			"componentType":5126,
			"count":32978,
			"type":"VEC3"
		},
		{
			"bufferView":12,
			"componentType":5126,
			"count":32978,
			"type":"VEC2"
		},
		{
			"bufferView":13,
			"componentType":5126,
			"count":32978,
			"type":"VEC2"
		},
		{
			"bufferView":14,
			"componentType":5123,
			"count":56520,
			"type":"SCALAR"
		},
		{
			"bufferView":15,
			"componentType":5126,
			"count":3487,
			"max":[
				388.5979309082031,
				164.54684448242188,
				321.05224609375
			],
			"min":[
				-386.7044677734375,
				37.70512771606445,
				-312.7138977050781
			],
			"type":"VEC3"
		},
		{
			"bufferView":16,
			"componentType":5126,
			"count":3487,
			"type":"VEC3"
		},
		{
			"bufferView":17,
			"componentType":5126,
			"count":3487,
			"type":"VEC2"
		},
		{
			"bufferView":18,
			"componentType":5126,
			"count":3487,
			"type":"VEC2"
		},
		{
			"bufferView":19,
			"componentType":5123,
			"count":7272,
			"type":"SCALAR"
		},
		{
			"bufferView":20,
			"componentType":5126,
			"count":1624,
			"max":[
				394.2795715332031,
				85.89430236816406,
				322.18096923828125
			],
			"min":[
				-392.3861083984375,
				-0.43594416975975037,
				-308.26434326171875
			],
			"type":"VEC3"
		},
		{
			"bufferView":21,
			"componentType":5126,
			"count":1624,
			"type":"VEC3"
		},
		{
			"bufferView":22,
			"componentType":5126,
			"count":1624,
			"type":"VEC2"
		},
		{
			"bufferView":23,
			"componentType":5126,
			"count":1624,
			"type":"VEC2"
		},
		{
			"bufferView":24,
			"componentType":5123,
			"count":3294,
			"type":"SCALAR"
		},
		{
			"bufferView":25,
			"componentType":5126,
			"count":832,
			"max":[
				242.9651336669922,
				149.60989379882812,
				321.19171142578125
			],
			"min":[
				-241.07171630859375,
				2.139643907546997,
				-312.85345458984375
			],
			"type":"VEC3"
		},
		{
			"bufferView":26,
			"componentType":5126,
			"count":832,
			"type":"VEC3"
		},
		{
			"bufferView":27,
			"componentType":5126,
			"count":832,
			"type":"VEC2"
		},
		{
			"bufferView":28,
			"componentType":5126,
			"count":832,
			"type":"VEC2"
		},
		{
			"bufferView":29,
			"componentType":5123,
			"count":1596,
			"type":"SCALAR"
		},
		{
			"bufferView":30,
			"componentType":5126,
			"count":7210,
			"max":[
				392.9268798828125,
				79.65451049804688,
				325.75091552734375
			],
			"min":[
				-391.03338623046875,
				-0.47807249426841736,
				-317.41259765625
			],
			"type":"VEC3"
		},
		{
			"bufferView":31,
			"componentType":5126,
			"count":7210,
			"type":"VEC3"
		},
		{
			"bufferView":32,
			"componentType":5126,
			"count":7210,
			"type":"VEC2"
		},
		{
			"bufferView":33,
			"componentType":5126,
			"count":7210,
			"type":"VEC2"
		},
		{
			"bufferView":34,
			"componentType":5123,
			"count":11694,
			"type":"SCALAR"
		}
	],
	"bufferViews":[
		{
			"buffer":0,
			"byteLength":17880,
			"byteOffset":0,
			"target":34962
		},
		{
			"buffer":0,
			"byteLength":17880,
			"byteOffset":17880,
			"target":34962
		},
		{
			"buffer":0,
			"byteLength":11920,
			"byteOffset":35760,
			"target":34962
		},
		{
			"buffer":0,
			"byteLength":11920,
			"byteOffset":47680,
			"target":34962
		},
		{
			"buffer":0,
			"byteLength":4752,
			"byteOffset":59600,
			"target":34963
		},
		{
			"buffer":0,
			"byteLength":10416,
			"byteOffset":64352,
			"target":34962
		},
		{
			"buffer":0,
			"byteLength":10416,
			"byteOffset":74768,
			"target":34962
		},
		{
			"buffer":0,
			"byteLength":6944,
			"byteOffset":85184,
			"target":34962
		},
		{
			"buffer":0,
			"byteLength":6944,
			"byteOffset":92128,
			"target":34962
		},
		{
			"buffer":0,
			"byteLength":3264,
			"byteOffset":99072,
			"target":34963
		},
		{
			"buffer":0,
			"byteLength":395736,
			"byteOffset":102336,
			"target":34962
		},
		{
			"buffer":0,
			"byteLength":395736,
			"byteOffset":498072,
			"target":34962
		},
		{
			"buffer":0,
			"byteLength":263824,
			"byteOffset":893808,
			"target":34962
		},
		{
			"buffer":0,
			"byteLength":263824,
			"byteOffset":1157632,
			"target":34962
		},
		{
			"buffer":0,
			"byteLength":113040,
			"byteOffset":1421456,
			"target":34963
		},
		{
			"buffer":0,
			"byteLength":41844,
			"byteOffset":1534496,
			"target":34962
		},
		{
			"buffer":0,
			"byteLength":41844,
			"byteOffset":1576340,
			"target":34962
		},
		{
			"buffer":0,
			"byteLength":27896,
			"byteOffset":1618184,
			"target":34962
		},
		{
			"buffer":0,
			"byteLength":27896,
			"byteOffset":1646080,
			"target":34962
		},
		{
			"buffer":0,
			"byteLength":14544,
			"byteOffset":1673976,
			"target":34963
		},
		{
			"buffer":0,
			"byteLength":19488,
			"byteOffset":1688520,
			"target":34962
		},
		{
			"buffer":0,
			"byteLength":19488,
			"byteOffset":1708008,
			"target":34962
		},
		{
			"buffer":0,
			"byteLength":12992,
			"byteOffset":1727496,
			"target":34962
		},
		{
			"buffer":0,
			"byteLength":12992,
			"byteOffset":1740488,
			"target":34962
		},
		{
			"buffer":0,
			"byteLength":6588,
			"byteOffset":1753480,
			"target":34963
		},
		{
			"buffer":0,
			"byteLength":9984,
			"byteOffset":1760068,
			"target":34962
		},
		{
			"buffer":0,
			"byteLength":9984,
			"byteOffset":1770052,
			"target":34962
		},
		{
			"buffer":0,
			"byteLength":6656,
			"byteOffset":1780036,
			"target":34962
		},
		{
			"buffer":0,
			"byteLength":6656,
			"byteOffset":1786692,
			"target":34962
		},
		{
			"buffer":0,
			"byteLength":3192,
			"byteOffset":1793348,
			"target":34963
		},
		{
			"buffer":0,
			"byteLength":86520,
			"byteOffset":1796540,
			"target":34962
		},
		{
			"buffer":0,
			"byteLength":86520,
			"byteOffset":1883060,
			"target":34962
		},
		{
			"buffer":0,
			"byteLength":57680,
			"byteOffset":1969580,
			"target":34962
		},
		{
			"buffer":0,
			"byteLength":57680,
			"byteOffset":2027260,
			"target":34962
		},
		{
			"buffer":0,
			"byteLength":23388,
			"byteOffset":2084940,
			"target":34963
		}
	],
	"samplers":[
		{
			"magFilter":9729,
			"minFilter":9987
		}
	],
	"buffers":[
		{
			"byteLength":2108328,
			"uri":"BuildingSphere_3.bin"
		}
	]
}
