{
	"asset":{
		"generator":"Khronos glTF Blender I/O v4.3.47",
		"version":"2.0"
	},
	"scene":0,
	"scenes":[
		{
			"name":"Scene",
			"nodes":[
				0
			]
		}
	],
	"nodes":[
		{
			"mesh":0,
			"name":"cityPiece"
		}
	],
	"materials":[
		{
			"doubleSided":true,
			"name":"MI_Roads",
			"normalTexture":{
				"index":0
			},
			"occlusionTexture":{
				"index":1
			},
			"pbrMetallicRoughness":{
				"baseColorTexture":{
					"index":2
				},
				"metallicRoughnessTexture":{
					"index":1
				}
			}
		},
		{
			"doubleSided":true,
			"name":"MI_Facade3",
			"normalTexture":{
				"index":3
			},
			"occlusionTexture":{
				"index":4
			},
			"pbrMetallicRoughness":{
				"baseColorTexture":{
					"index":5
				},
				"metallicRoughnessTexture":{
					"index":4
				}
			}
		},
		{
			"doubleSided":true,
			"name":"MI_BackgroundbuildingAtlas",
			"normalTexture":{
				"index":6
			},
			"occlusionTexture":{
				"index":7
			},
			"pbrMetallicRoughness":{
				"baseColorTexture":{
					"index":8
				},
				"metallicRoughnessTexture":{
					"index":7
				}
			}
		},
		{
			"doubleSided":true,
			"name":"MI_BuildingsAtlas2",
			"normalTexture":{
				"index":9
			},
			"occlusionTexture":{
				"index":10
			},
			"pbrMetallicRoughness":{
				"baseColorTexture":{
					"index":11
				},
				"metallicRoughnessTexture":{
					"index":10
				}
			}
		},
		{
			"doubleSided":true,
			"name":"MI_BuildingsFacade2",
			"normalTexture":{
				"index":12
			},
			"occlusionTexture":{
				"index":13
			},
			"pbrMetallicRoughness":{
				"baseColorTexture":{
					"index":14
				},
				"metallicRoughnessTexture":{
					"index":13
				}
			}
		},
		{
			"doubleSided":true,
			"name":"MI_BuildingsFacade4",
			"normalTexture":{
				"index":15
			},
			"occlusionTexture":{
				"index":16
			},
			"pbrMetallicRoughness":{
				"baseColorTexture":{
					"index":17
				},
				"metallicRoughnessTexture":{
					"index":16
				}
			}
		},
		{
			"doubleSided":true,
			"name":"MI_BGBuildingsFacade1",
			"normalTexture":{
				"index":18
			},
			"occlusionTexture":{
				"index":19
			},
			"pbrMetallicRoughness":{
				"baseColorTexture":{
					"index":20
				},
				"metallicRoughnessTexture":{
					"index":19
				}
			}
		}
	],
	"meshes":[
		{
			"name":"SM_CityPiece",
			"primitives":[
				{
					"attributes":{
						"POSITION":0,
						"NORMAL":1,
						"TEXCOORD_0":2,
						"TEXCOORD_1":3
					},
					"indices":4,
					"material":0
				},
				{
					"attributes":{
						"POSITION":5,
						"NORMAL":6,
						"TEXCOORD_0":7,
						"TEXCOORD_1":8
					},
					"indices":9,
					"material":1
				},
				{
					"attributes":{
						"POSITION":10,
						"NORMAL":11,
						"TEXCOORD_0":12,
						"TEXCOORD_1":13
					},
					"indices":14,
					"material":2
				},
				{
					"attributes":{
						"POSITION":15,
						"NORMAL":16,
						"TEXCOORD_0":17,
						"TEXCOORD_1":18
					},
					"indices":19,
					"material":3
				},
				{
					"attributes":{
						"POSITION":20,
						"NORMAL":21,
						"TEXCOORD_0":22,
						"TEXCOORD_1":23
					},
					"indices":24,
					"material":4
				},
				{
					"attributes":{
						"POSITION":25,
						"NORMAL":26,
						"TEXCOORD_0":27,
						"TEXCOORD_1":28
					},
					"indices":29,
					"material":5
				},
				{
					"attributes":{
						"POSITION":30,
						"NORMAL":31,
						"TEXCOORD_0":32,
						"TEXCOORD_1":33
					},
					"indices":34,
					"material":6
				}
			]
		}
	],
	"textures":[
		{
			"sampler":0,
			"source":0
		},
		{
			"sampler":0,
			"source":1
		},
		{
			"sampler":0,
			"source":2
		},
		{
			"sampler":0,
			"source":3
		},
		{
			"sampler":0,
			"source":4
		},
		{
			"sampler":0,
			"source":5
		},
		{
			"sampler":0,
			"source":6
		},
		{
			"sampler":0,
			"source":7
		},
		{
			"sampler":0,
			"source":8
		},
		{
			"sampler":0,
			"source":9
		},
		{
			"sampler":0,
			"source":10
		},
		{
			"sampler":0,
			"source":11
		},
		{
			"sampler":0,
			"source":12
		},
		{
			"sampler":0,
			"source":13
		},
		{
			"sampler":0,
			"source":14
		},
		{
			"sampler":0,
			"source":15
		},
		{
			"sampler":0,
			"source":16
		},
		{
			"sampler":0,
			"source":17
		},
		{
			"sampler":0,
			"source":18
		},
		{
			"sampler":0,
			"source":19
		},
		{
			"sampler":0,
			"source":20
		}
	],
	"images":[
		{
			"mimeType":"image/png",
			"name":"T_Roads_N",
			"uri":"T_Roads_N.png"
		},
		{
			"mimeType":"image/png",
			"name":"T_Roads_ORM_Linear",
			"uri":"T_Roads_ORM_Linear.png"
		},
		{
			"mimeType":"image/png",
			"name":"T_Roads_D",
			"uri":"T_Roads_D.png"
		},
		{
			"mimeType":"image/png",
			"name":"T_BGBuildingsFacade3_N",
			"uri":"T_BGBuildingsFacade3_N.png"
		},
		{
			"mimeType":"image/png",
			"name":"T_BGBuildingsFacade3_ORM",
			"uri":"T_BGBuildingsFacade3_ORM.png"
		},
		{
			"mimeType":"image/png",
			"name":"T_BGBuildingsFacade3_D",
			"uri":"T_BGBuildingsFacade3_D.png"
		},
		{
			"mimeType":"image/png",
			"name":"T_BuildingsAtlas_N",
			"uri":"T_BuildingsAtlas_N.png"
		},
		{
			"mimeType":"image/png",
			"name":"T_BuildingsAtlas_ORM_Linear",
			"uri":"T_BuildingsAtlas_ORM_Linear.png"
		},
		{
			"mimeType":"image/png",
			"name":"T_BuildingsAtlas_D",
			"uri":"T_BuildingsAtlas_D.png"
		},
		{
			"mimeType":"image/png",
			"name":"T_BuildingAtlas2_N",
			"uri":"T_BuildingAtlas2_N.png"
		},
		{
			"mimeType":"image/png",
			"name":"T_BuildingAtlas2_ORM",
			"uri":"T_BuildingAtlas2_ORM.png"
		},
		{
			"mimeType":"image/png",
			"name":"T_BuildingAtlas2_D",
			"uri":"T_BuildingAtlas2_D.png"
		},
		{
			"mimeType":"image/png",
			"name":"T_BGBuildingsFacade2_N",
			"uri":"T_BGBuildingsFacade2_N.png"
		},
		{
			"mimeType":"image/png",
			"name":"T_BGBuildingsFacade2_ORM_Linear",
			"uri":"T_BGBuildingsFacade2_ORM_Linear.png"
		},
		{
			"mimeType":"image/png",
			"name":"T_BGBuildingsFacade2_D",
			"uri":"T_BGBuildingsFacade2_D.png"
		},
		{
			"mimeType":"image/png",
			"name":"T_BGBuildingsFacade4_N",
			"uri":"T_BGBuildingsFacade4_N.png"
		},
		{
			"mimeType":"image/png",
			"name":"T_BGBuildingsFacade4_ORM",
			"uri":"T_BGBuildingsFacade4_ORM.png"
		},
		{
			"mimeType":"image/png",
			"name":"T_BGBuildingsFacade4_D",
			"uri":"T_BGBuildingsFacade4_D.png"
		},
		{
			"mimeType":"image/png",
			"name":"T_BGBuildingsFacade1_N",
			"uri":"T_BGBuildingsFacade1_N.png"
		},
		{
			"mimeType":"image/png",
			"name":"T_BGBuildingsFacade1_ORM",
			"uri":"T_BGBuildingsFacade1_ORM.png"
		},
		{
			"mimeType":"image/png",
			"name":"T_BGBuildingsFacade1_D",
			"uri":"T_BGBuildingsFacade1_D.png"
		}
	],
	"accessors":[
		{
			"bufferView":0,
			"componentType":5126,
			"count":1490,
			"max":[
				325.6015930175781,
				4.84959972570434e-14,
				396.03399658203125
			],
			"min":[
				-322.3982849121094,
				-1.0511225977884623e-21,
				-395.9657897949219
			],
			"type":"VEC3"
		},
		{
			"bufferView":1,
			"componentType":5126,
			"count":1490,
			"type":"VEC3"
		},
		{
			"bufferView":2,
			"componentType":5126,
			"count":1490,
			"type":"VEC2"
		},
		{
			"bufferView":3,
			"componentType":5126,
			"count":1490,
			"type":"VEC2"
		},
		{
			"bufferView":4,
			"componentType":5123,
			"count":2376,
			"type":"SCALAR"
		},
		{
			"bufferView":5,
			"componentType":5126,
			"count":868,
			"max":[
				279.7983093261719,
				231.43951416015625,
				300.3125
			],
			"min":[
				-276.5950927734375,
				-1.0681707859039307,
				-300.2442932128906
			],
			"type":"VEC3"
		},
		{
			"bufferView":6,
			"componentType":5126,
			"count":868,
			"type":"VEC3"
		},
		{
			"bufferView":7,
			"componentType":5126,
			"count":868,
			"type":"VEC2"
		},
		{
			"bufferView":8,
			"componentType":5126,
			"count":868,
			"type":"VEC2"
		},
		{
			"bufferView":9,
			"componentType":5123,
			"count":1632,
			"type":"SCALAR"
		},
		{
			"bufferView":10,
			"componentType":5126,
			"count":32988,
			"max":[
				323.4618835449219,
				237.654541015625,
				393.36688232421875
			],
			"min":[
				-320.2586975097656,
				-2.877835512161255,
				-393.2987060546875
			],
			"type":"VEC3"
		},
		{
			"bufferView":11,
			"componentType":5126,
			"count":32988,
			"type":"VEC3"
		},
		{
			"bufferView":12,
			"componentType":5126,
			"count":32988,
			"type":"VEC2"
		},
		{
			"bufferView":13,
			"componentType":5126,
			"count":32988,
			"type":"VEC2"
		},
		{
			"bufferView":14,
			"componentType":5123,
			"count":56520,
			"type":"SCALAR"
		},
		{
			"bufferView":15,
			"componentType":5126,
			"count":3475,
			"max":[
				318.4848327636719,
				228.93475341796875,
				387.6851806640625
			],
			"min":[
				-315.2815856933594,
				52.45932388305664,
				-387.6169738769531
			],
			"type":"VEC3"
		},
		{
			"bufferView":16,
			"componentType":5126,
			"count":3475,
			"type":"VEC3"
		},
		{
			"bufferView":17,
			"componentType":5126,
			"count":3475,
			"type":"VEC2"
		},
		{
			"bufferView":18,
			"componentType":5126,
			"count":3475,
			"type":"VEC2"
		},
		{
			"bufferView":19,
			"componentType":5123,
			"count":7272,
			"type":"SCALAR"
		},
		{
			"bufferView":20,
			"componentType":5126,
			"count":1614,
			"max":[
				319.6135559082031,
				119.505126953125,
				393.36688232421875
			],
			"min":[
				-310.83203125,
				-0.6065160632133484,
				-393.2987060546875
			],
			"type":"VEC3"
		},
		{
			"bufferView":21,
			"componentType":5126,
			"count":1614,
			"type":"VEC3"
		},
		{
			"bufferView":22,
			"componentType":5126,
			"count":1614,
			"type":"VEC2"
		},
		{
			"bufferView":23,
			"componentType":5126,
			"count":1614,
			"type":"VEC2"
		},
		{
			"bufferView":24,
			"componentType":5123,
			"count":3294,
			"type":"SCALAR"
		},
		{
			"bufferView":25,
			"componentType":5126,
			"count":834,
			"max":[
				318.6241760253906,
				208.15292358398438,
				242.05242919921875
			],
			"min":[
				-315.4210205078125,
				2.9769108295440674,
				-241.9842071533203
			],
			"type":"VEC3"
		},
		{
			"bufferView":26,
			"componentType":5126,
			"count":834,
			"type":"VEC3"
		},
		{
			"bufferView":27,
			"componentType":5126,
			"count":834,
			"type":"VEC2"
		},
		{
			"bufferView":28,
			"componentType":5126,
			"count":834,
			"type":"VEC2"
		},
		{
			"bufferView":29,
			"componentType":5123,
			"count":1596,
			"type":"SCALAR"
		},
		{
			"bufferView":30,
			"componentType":5126,
			"count":7210,
			"max":[
				323.1833801269531,
				110.82367706298828,
				392.01416015625
			],
			"min":[
				-319.9801940917969,
				-0.6651293635368347,
				-391.94598388671875
			],
			"type":"VEC3"
		},
		{
			"bufferView":31,
			"componentType":5126,
			"count":7210,
			"type":"VEC3"
		},
		{
			"bufferView":32,
			"componentType":5126,
			"count":7210,
			"type":"VEC2"
		},
		{
			"bufferView":33,
			"componentType":5126,
			"count":7210,
			"type":"VEC2"
		},
		{
			"bufferView":34,
			"componentType":5123,
			"count":11694,
			"type":"SCALAR"
		}
	],
	"bufferViews":[
		{
			"buffer":0,
			"byteLength":17880,
			"byteOffset":0,
			"target":34962
		},
		{
			"buffer":0,
			"byteLength":17880,
			"byteOffset":17880,
			"target":34962
		},
		{
			"buffer":0,
			"byteLength":11920,
			"byteOffset":35760,
			"target":34962
		},
		{
			"buffer":0,
			"byteLength":11920,
			"byteOffset":47680,
			"target":34962
		},
		{
			"buffer":0,
			"byteLength":4752,
			"byteOffset":59600,
			"target":34963
		},
		{
			"buffer":0,
			"byteLength":10416,
			"byteOffset":64352,
			"target":34962
		},
		{
			"buffer":0,
			"byteLength":10416,
			"byteOffset":74768,
			"target":34962
		},
		{
			"buffer":0,
			"byteLength":6944,
			"byteOffset":85184,
			"target":34962
		},
		{
			"buffer":0,
			"byteLength":6944,
			"byteOffset":92128,
			"target":34962
		},
		{
			"buffer":0,
			"byteLength":3264,
			"byteOffset":99072,
			"target":34963
		},
		{
			"buffer":0,
			"byteLength":395856,
			"byteOffset":102336,
			"target":34962
		},
		{
			"buffer":0,
			"byteLength":395856,
			"byteOffset":498192,
			"target":34962
		},
		{
			"buffer":0,
			"byteLength":263904,
			"byteOffset":894048,
			"target":34962
		},
		{
			"buffer":0,
			"byteLength":263904,
			"byteOffset":1157952,
			"target":34962
		},
		{
			"buffer":0,
			"byteLength":113040,
			"byteOffset":1421856,
			"target":34963
		},
		{
			"buffer":0,
			"byteLength":41700,
			"byteOffset":1534896,
			"target":34962
		},
		{
			"buffer":0,
			"byteLength":41700,
			"byteOffset":1576596,
			"target":34962
		},
		{
			"buffer":0,
			"byteLength":27800,
			"byteOffset":1618296,
			"target":34962
		},
		{
			"buffer":0,
			"byteLength":27800,
			"byteOffset":1646096,
			"target":34962
		},
		{
			"buffer":0,
			"byteLength":14544,
			"byteOffset":1673896,
			"target":34963
		},
		{
			"buffer":0,
			"byteLength":19368,
			"byteOffset":1688440,
			"target":34962
		},
		{
			"buffer":0,
			"byteLength":19368,
			"byteOffset":1707808,
			"target":34962
		},
		{
			"buffer":0,
			"byteLength":12912,
			"byteOffset":1727176,
			"target":34962
		},
		{
			"buffer":0,
			"byteLength":12912,
			"byteOffset":1740088,
			"target":34962
		},
		{
			"buffer":0,
			"byteLength":6588,
			"byteOffset":1753000,
			"target":34963
		},
		{
			"buffer":0,
			"byteLength":10008,
			"byteOffset":1759588,
			"target":34962
		},
		{
			"buffer":0,
			"byteLength":10008,
			"byteOffset":1769596,
			"target":34962
		},
		{
			"buffer":0,
			"byteLength":6672,
			"byteOffset":1779604,
			"target":34962
		},
		{
			"buffer":0,
			"byteLength":6672,
			"byteOffset":1786276,
			"target":34962
		},
		{
			"buffer":0,
			"byteLength":3192,
			"byteOffset":1792948,
			"target":34963
		},
		{
			"buffer":0,
			"byteLength":86520,
			"byteOffset":1796140,
			"target":34962
		},
		{
			"buffer":0,
			"byteLength":86520,
			"byteOffset":1882660,
			"target":34962
		},
		{
			"buffer":0,
			"byteLength":57680,
			"byteOffset":1969180,
			"target":34962
		},
		{
			"buffer":0,
			"byteLength":57680,
			"byteOffset":2026860,
			"target":34962
		},
		{
			"buffer":0,
			"byteLength":23388,
			"byteOffset":2084540,
			"target":34963
		}
	],
	"samplers":[
		{
			"magFilter":9729,
			"minFilter":9987
		}
	],
	"buffers":[
		{
			"byteLength":2107928,
			"uri":"BuildingSphere_1.bin"
		}
	]
}
