{
	"asset":{
		"generator":"Khronos glTF Blender I/O v4.3.47",
		"version":"2.0"
	},
	"scene":0,
	"scenes":[
		{
			"name":"Scene",
			"nodes":[
				0
			]
		}
	],
	"nodes":[
		{
			"mesh":0,
			"name":"cityPiece3"
		}
	],
	"materials":[
		{
			"doubleSided":true,
			"name":"MI_Roads",
			"normalTexture":{
				"index":0
			},
			"occlusionTexture":{
				"index":1
			},
			"pbrMetallicRoughness":{
				"baseColorTexture":{
					"index":2
				},
				"metallicRoughnessTexture":{
					"index":1
				}
			}
		},
		{
			"doubleSided":true,
			"name":"MI_Facade3",
			"normalTexture":{
				"index":3
			},
			"occlusionTexture":{
				"index":4
			},
			"pbrMetallicRoughness":{
				"baseColorTexture":{
					"index":5
				},
				"metallicRoughnessTexture":{
					"index":4
				}
			}
		},
		{
			"doubleSided":true,
			"name":"MI_BackgroundbuildingAtlas",
			"normalTexture":{
				"index":6
			},
			"occlusionTexture":{
				"index":7
			},
			"pbrMetallicRoughness":{
				"baseColorTexture":{
					"index":8
				},
				"metallicRoughnessTexture":{
					"index":7
				}
			}
		},
		{
			"doubleSided":true,
			"name":"MI_BuildingsAtlas2",
			"normalTexture":{
				"index":9
			},
			"occlusionTexture":{
				"index":10
			},
			"pbrMetallicRoughness":{
				"baseColorTexture":{
					"index":11
				},
				"metallicRoughnessTexture":{
					"index":10
				}
			}
		},
		{
			"doubleSided":true,
			"name":"MI_BuildingsFacade2",
			"normalTexture":{
				"index":12
			},
			"occlusionTexture":{
				"index":13
			},
			"pbrMetallicRoughness":{
				"baseColorTexture":{
					"index":14
				},
				"metallicRoughnessTexture":{
					"index":13
				}
			}
		},
		{
			"doubleSided":true,
			"name":"MI_BuildingsFacade4",
			"normalTexture":{
				"index":15
			},
			"occlusionTexture":{
				"index":16
			},
			"pbrMetallicRoughness":{
				"baseColorTexture":{
					"index":17
				},
				"metallicRoughnessTexture":{
					"index":16
				}
			}
		},
		{
			"doubleSided":true,
			"name":"MI_BGBuildingsFacade1",
			"normalTexture":{
				"index":18
			},
			"occlusionTexture":{
				"index":19
			},
			"pbrMetallicRoughness":{
				"baseColorTexture":{
					"index":20
				},
				"metallicRoughnessTexture":{
					"index":19
				}
			}
		}
	],
	"meshes":[
		{
			"name":"SM_CityPiece",
			"primitives":[
				{
					"attributes":{
						"POSITION":0,
						"NORMAL":1,
						"TEXCOORD_0":2,
						"TEXCOORD_1":3
					},
					"indices":4,
					"material":0
				},
				{
					"attributes":{
						"POSITION":5,
						"NORMAL":6,
						"TEXCOORD_0":7,
						"TEXCOORD_1":8
					},
					"indices":9,
					"material":1
				},
				{
					"attributes":{
						"POSITION":10,
						"NORMAL":11,
						"TEXCOORD_0":12,
						"TEXCOORD_1":13
					},
					"indices":14,
					"material":2
				},
				{
					"attributes":{
						"POSITION":15,
						"NORMAL":16,
						"TEXCOORD_0":17,
						"TEXCOORD_1":18
					},
					"indices":19,
					"material":3
				},
				{
					"attributes":{
						"POSITION":20,
						"NORMAL":21,
						"TEXCOORD_0":22,
						"TEXCOORD_1":23
					},
					"indices":24,
					"material":4
				},
				{
					"attributes":{
						"POSITION":25,
						"NORMAL":26,
						"TEXCOORD_0":27,
						"TEXCOORD_1":28
					},
					"indices":29,
					"material":5
				},
				{
					"attributes":{
						"POSITION":30,
						"NORMAL":31,
						"TEXCOORD_0":32,
						"TEXCOORD_1":33
					},
					"indices":34,
					"material":6
				}
			]
		}
	],
	"textures":[
		{
			"sampler":0,
			"source":0
		},
		{
			"sampler":0,
			"source":1
		},
		{
			"sampler":0,
			"source":2
		},
		{
			"sampler":0,
			"source":3
		},
		{
			"sampler":0,
			"source":4
		},
		{
			"sampler":0,
			"source":5
		},
		{
			"sampler":0,
			"source":6
		},
		{
			"sampler":0,
			"source":7
		},
		{
			"sampler":0,
			"source":8
		},
		{
			"sampler":0,
			"source":9
		},
		{
			"sampler":0,
			"source":10
		},
		{
			"sampler":0,
			"source":11
		},
		{
			"sampler":0,
			"source":12
		},
		{
			"sampler":0,
			"source":13
		},
		{
			"sampler":0,
			"source":14
		},
		{
			"sampler":0,
			"source":15
		},
		{
			"sampler":0,
			"source":16
		},
		{
			"sampler":0,
			"source":17
		},
		{
			"sampler":0,
			"source":18
		},
		{
			"sampler":0,
			"source":19
		},
		{
			"sampler":0,
			"source":20
		}
	],
	"images":[
		{
			"mimeType":"image/png",
			"name":"T_Roads_N",
			"uri":"T_Roads_N.png"
		},
		{
			"mimeType":"image/png",
			"name":"T_Roads_ORM_Linear",
			"uri":"T_Roads_ORM_Linear.png"
		},
		{
			"mimeType":"image/png",
			"name":"T_Roads_D",
			"uri":"T_Roads_D.png"
		},
		{
			"mimeType":"image/png",
			"name":"T_BGBuildingsFacade3_N",
			"uri":"T_BGBuildingsFacade3_N.png"
		},
		{
			"mimeType":"image/png",
			"name":"T_BGBuildingsFacade3_ORM",
			"uri":"T_BGBuildingsFacade3_ORM.png"
		},
		{
			"mimeType":"image/png",
			"name":"T_BGBuildingsFacade3_D",
			"uri":"T_BGBuildingsFacade3_D.png"
		},
		{
			"mimeType":"image/png",
			"name":"T_BuildingsAtlas_N",
			"uri":"T_BuildingsAtlas_N.png"
		},
		{
			"mimeType":"image/png",
			"name":"T_BuildingsAtlas_ORM_Linear",
			"uri":"T_BuildingsAtlas_ORM_Linear.png"
		},
		{
			"mimeType":"image/png",
			"name":"T_BuildingsAtlas_D",
			"uri":"T_BuildingsAtlas_D.png"
		},
		{
			"mimeType":"image/png",
			"name":"T_BuildingAtlas2_N",
			"uri":"T_BuildingAtlas2_N.png"
		},
		{
			"mimeType":"image/png",
			"name":"T_BuildingAtlas2_ORM",
			"uri":"T_BuildingAtlas2_ORM.png"
		},
		{
			"mimeType":"image/png",
			"name":"T_BuildingAtlas2_D",
			"uri":"T_BuildingAtlas2_D.png"
		},
		{
			"mimeType":"image/png",
			"name":"T_BGBuildingsFacade2_N",
			"uri":"T_BGBuildingsFacade2_N.png"
		},
		{
			"mimeType":"image/png",
			"name":"T_BGBuildingsFacade2_ORM_Linear",
			"uri":"T_BGBuildingsFacade2_ORM_Linear.png"
		},
		{
			"mimeType":"image/png",
			"name":"T_BGBuildingsFacade2_D",
			"uri":"T_BGBuildingsFacade2_D.png"
		},
		{
			"mimeType":"image/png",
			"name":"T_BGBuildingsFacade4_N",
			"uri":"T_BGBuildingsFacade4_N.png"
		},
		{
			"mimeType":"image/png",
			"name":"T_BGBuildingsFacade4_ORM",
			"uri":"T_BGBuildingsFacade4_ORM.png"
		},
		{
			"mimeType":"image/png",
			"name":"T_BGBuildingsFacade4_D",
			"uri":"T_BGBuildingsFacade4_D.png"
		},
		{
			"mimeType":"image/png",
			"name":"T_BGBuildingsFacade1_N",
			"uri":"T_BGBuildingsFacade1_N.png"
		},
		{
			"mimeType":"image/png",
			"name":"T_BGBuildingsFacade1_ORM",
			"uri":"T_BGBuildingsFacade1_ORM.png"
		},
		{
			"mimeType":"image/png",
			"name":"T_BGBuildingsFacade1_D",
			"uri":"T_BGBuildingsFacade1_D.png"
		}
	],
	"accessors":[
		{
			"bufferView":0,
			"componentType":5126,
			"count":1490,
			"max":[
				325.6438903808594,
				6.668199792250057e-14,
				395.966796875
			],
			"min":[
				-322.3572692871094,
				-1.4452935467155867e-21,
				-396.03399658203125
			],
			"type":"VEC3"
		},
		{
			"bufferView":1,
			"componentType":5126,
			"count":1490,
			"type":"VEC3"
		},
		{
			"bufferView":2,
			"componentType":5126,
			"count":1490,
			"type":"VEC2"
		},
		{
			"bufferView":3,
			"componentType":5126,
			"count":1490,
			"type":"VEC2"
		},
		{
			"bufferView":4,
			"componentType":5123,
			"count":2376,
			"type":"SCALAR"
		},
		{
			"bufferView":5,
			"componentType":5126,
			"count":868,
			"max":[
				279.8401794433594,
				318.2293395996094,
				300.2451477050781
			],
			"min":[
				-276.5534362792969,
				-1.468734860420227,
				-300.31231689453125
			],
			"type":"VEC3"
		},
		{
			"bufferView":6,
			"componentType":5126,
			"count":868,
			"type":"VEC3"
		},
		{
			"bufferView":7,
			"componentType":5126,
			"count":868,
			"type":"VEC2"
		},
		{
			"bufferView":8,
			"componentType":5126,
			"count":868,
			"type":"VEC2"
		},
		{
			"bufferView":9,
			"componentType":5123,
			"count":1632,
			"type":"SCALAR"
		},
		{
			"bufferView":10,
			"componentType":5126,
			"count":33009,
			"max":[
				323.50347900390625,
				326.7749938964844,
				393.2994079589844
			],
			"min":[
				-320.2167053222656,
				-3.957023859024048,
				-393.36651611328125
			],
			"type":"VEC3"
		},
		{
			"bufferView":11,
			"componentType":5126,
			"count":33009,
			"type":"VEC3"
		},
		{
			"bufferView":12,
			"componentType":5126,
			"count":33009,
			"type":"VEC2"
		},
		{
			"bufferView":13,
			"componentType":5126,
			"count":33009,
			"type":"VEC2"
		},
		{
			"bufferView":14,
			"componentType":5123,
			"count":56520,
			"type":"SCALAR"
		},
		{
			"bufferView":15,
			"componentType":5126,
			"count":3478,
			"max":[
				318.5260009765625,
				314.7852783203125,
				387.6180114746094
			],
			"min":[
				-315.2392883300781,
				72.1315689086914,
				-387.6851806640625
			],
			"type":"VEC3"
		},
		{
			"bufferView":16,
			"componentType":5126,
			"count":3478,
			"type":"VEC3"
		},
		{
			"bufferView":17,
			"componentType":5126,
			"count":3478,
			"type":"VEC2"
		},
		{
			"bufferView":18,
			"componentType":5126,
			"count":3478,
			"type":"VEC2"
		},
		{
			"bufferView":19,
			"componentType":5123,
			"count":7272,
			"type":"SCALAR"
		},
		{
			"bufferView":20,
			"componentType":5126,
			"count":1616,
			"max":[
				314.0764465332031,
				164.31954956054688,
				393.2994079589844
			],
			"min":[
				-316.3680114746094,
				-0.8339595794677734,
				-393.36651611328125
			],
			"type":"VEC3"
		},
		{
			"bufferView":21,
			"componentType":5126,
			"count":1616,
			"type":"VEC3"
		},
		{
			"bufferView":22,
			"componentType":5126,
			"count":1616,
			"type":"VEC2"
		},
		{
			"bufferView":23,
			"componentType":5126,
			"count":1616,
			"type":"VEC2"
		},
		{
			"bufferView":24,
			"componentType":5123,
			"count":3294,
			"type":"SCALAR"
		},
		{
			"bufferView":25,
			"componentType":5126,
			"count":832,
			"max":[
				318.66595458984375,
				286.21026611328125,
				241.9851837158203
			],
			"min":[
				-315.3791809082031,
				4.093252182006836,
				-242.05242919921875
			],
			"type":"VEC3"
		},
		{
			"bufferView":26,
			"componentType":5126,
			"count":832,
			"type":"VEC3"
		},
		{
			"bufferView":27,
			"componentType":5126,
			"count":832,
			"type":"VEC2"
		},
		{
			"bufferView":28,
			"componentType":5126,
			"count":832,
			"type":"VEC2"
		},
		{
			"bufferView":29,
			"componentType":5123,
			"count":1596,
			"type":"SCALAR"
		},
		{
			"bufferView":30,
			"componentType":5126,
			"count":7210,
			"max":[
				323.2249755859375,
				152.38255310058594,
				391.94683837890625
			],
			"min":[
				-319.9382019042969,
				-0.9145528674125671,
				-392.01397705078125
			],
			"type":"VEC3"
		},
		{
			"bufferView":31,
			"componentType":5126,
			"count":7210,
			"type":"VEC3"
		},
		{
			"bufferView":32,
			"componentType":5126,
			"count":7210,
			"type":"VEC2"
		},
		{
			"bufferView":33,
			"componentType":5126,
			"count":7210,
			"type":"VEC2"
		},
		{
			"bufferView":34,
			"componentType":5123,
			"count":11694,
			"type":"SCALAR"
		}
	],
	"bufferViews":[
		{
			"buffer":0,
			"byteLength":17880,
			"byteOffset":0,
			"target":34962
		},
		{
			"buffer":0,
			"byteLength":17880,
			"byteOffset":17880,
			"target":34962
		},
		{
			"buffer":0,
			"byteLength":11920,
			"byteOffset":35760,
			"target":34962
		},
		{
			"buffer":0,
			"byteLength":11920,
			"byteOffset":47680,
			"target":34962
		},
		{
			"buffer":0,
			"byteLength":4752,
			"byteOffset":59600,
			"target":34963
		},
		{
			"buffer":0,
			"byteLength":10416,
			"byteOffset":64352,
			"target":34962
		},
		{
			"buffer":0,
			"byteLength":10416,
			"byteOffset":74768,
			"target":34962
		},
		{
			"buffer":0,
			"byteLength":6944,
			"byteOffset":85184,
			"target":34962
		},
		{
			"buffer":0,
			"byteLength":6944,
			"byteOffset":92128,
			"target":34962
		},
		{
			"buffer":0,
			"byteLength":3264,
			"byteOffset":99072,
			"target":34963
		},
		{
			"buffer":0,
			"byteLength":396108,
			"byteOffset":102336,
			"target":34962
		},
		{
			"buffer":0,
			"byteLength":396108,
			"byteOffset":498444,
			"target":34962
		},
		{
			"buffer":0,
			"byteLength":264072,
			"byteOffset":894552,
			"target":34962
		},
		{
			"buffer":0,
			"byteLength":264072,
			"byteOffset":1158624,
			"target":34962
		},
		{
			"buffer":0,
			"byteLength":113040,
			"byteOffset":1422696,
			"target":34963
		},
		{
			"buffer":0,
			"byteLength":41736,
			"byteOffset":1535736,
			"target":34962
		},
		{
			"buffer":0,
			"byteLength":41736,
			"byteOffset":1577472,
			"target":34962
		},
		{
			"buffer":0,
			"byteLength":27824,
			"byteOffset":1619208,
			"target":34962
		},
		{
			"buffer":0,
			"byteLength":27824,
			"byteOffset":1647032,
			"target":34962
		},
		{
			"buffer":0,
			"byteLength":14544,
			"byteOffset":1674856,
			"target":34963
		},
		{
			"buffer":0,
			"byteLength":19392,
			"byteOffset":1689400,
			"target":34962
		},
		{
			"buffer":0,
			"byteLength":19392,
			"byteOffset":1708792,
			"target":34962
		},
		{
			"buffer":0,
			"byteLength":12928,
			"byteOffset":1728184,
			"target":34962
		},
		{
			"buffer":0,
			"byteLength":12928,
			"byteOffset":1741112,
			"target":34962
		},
		{
			"buffer":0,
			"byteLength":6588,
			"byteOffset":1754040,
			"target":34963
		},
		{
			"buffer":0,
			"byteLength":9984,
			"byteOffset":1760628,
			"target":34962
		},
		{
			"buffer":0,
			"byteLength":9984,
			"byteOffset":1770612,
			"target":34962
		},
		{
			"buffer":0,
			"byteLength":6656,
			"byteOffset":1780596,
			"target":34962
		},
		{
			"buffer":0,
			"byteLength":6656,
			"byteOffset":1787252,
			"target":34962
		},
		{
			"buffer":0,
			"byteLength":3192,
			"byteOffset":1793908,
			"target":34963
		},
		{
			"buffer":0,
			"byteLength":86520,
			"byteOffset":1797100,
			"target":34962
		},
		{
			"buffer":0,
			"byteLength":86520,
			"byteOffset":1883620,
			"target":34962
		},
		{
			"buffer":0,
			"byteLength":57680,
			"byteOffset":1970140,
			"target":34962
		},
		{
			"buffer":0,
			"byteLength":57680,
			"byteOffset":2027820,
			"target":34962
		},
		{
			"buffer":0,
			"byteLength":23388,
			"byteOffset":2085500,
			"target":34963
		}
	],
	"samplers":[
		{
			"magFilter":9729,
			"minFilter":9987
		}
	],
	"buffers":[
		{
			"byteLength":2108888,
			"uri":"BuildingSphere_2.bin"
		}
	]
}
