{
	"asset":{
		"generator":"Khronos glTF Blender I/O v4.3.47",
		"version":"2.0"
	},
	"scene":0,
	"scenes":[
		{
			"name":"Scene",
			"nodes":[
				0
			]
		}
	],
	"nodes":[
		{
			"mesh":0,
			"name":"Peacemaker_Sword"
		}
	],
	"materials":[
		{
			"doubleSided":true,
			"name":"Peacemaker",
			"normalTexture":{
				"index":0
			},
			"pbrMetallicRoughness":{
				"baseColorTexture":{
					"index":1
				},
				"metallicFactor":0.6324110627174377,
				"roughnessFactor":0.5
			}
		},
		{
			"doubleSided":true,
			"name":"Blade",
			"normalTexture":{
				"index":2
			},
			"pbrMetallicRoughness":{
				"baseColorTexture":{
					"index":3
				},
				"metallicFactor":0.6324110627174377,
				"roughnessFactor":0.5
			}
		}
	],
	"meshes":[
		{
			"name":"Sword_Cable_04",
			"primitives":[
				{
					"attributes":{
						"POSITION":0,
						"NORMAL":1,
						"TEXCOORD_0":2,
						"COLOR_0":3,
						"COLOR_1":4
					},
					"indices":5,
					"material":0
				},
				{
					"attributes":{
						"POSITION":6,
						"NORMAL":7,
						"TEXCOORD_0":8,
						"COLOR_0":9,
						"COLOR_1":10
					},
					"indices":11,
					"material":1
				}
			]
		}
	],
	"textures":[
		{
			"sampler":0,
			"source":0
		},
		{
			"sampler":0,
			"source":1
		},
		{
			"sampler":0,
			"source":2
		},
		{
			"sampler":0,
			"source":3
		}
	],
	"images":[
		{
			"mimeType":"image/png",
			"name":"T_Peacemaker_Normal",
			"uri":"T_Peacemaker_Normal.png"
		},
		{
			"mimeType":"image/png",
			"name":"T_Peacemaker_BaseColor",
			"uri":"T_Peacemaker_BaseColor.png"
		},
		{
			"mimeType":"image/png",
			"name":"T_Blade_Normal",
			"uri":"T_Blade_Normal.png"
		},
		{
			"mimeType":"image/png",
			"name":"T_Blade_BaseColor",
			"uri":"T_Blade_BaseColor.png"
		}
	],
	"accessors":[
		{
			"bufferView":0,
			"componentType":5126,
			"count":22644,
			"max":[
				0.06946003437042236,
				0.1536719799041748,
				0.7607372403144836
			],
			"min":[
				-0.06573754549026489,
				-0.07787394523620605,
				-0.709138035774231
			],
			"type":"VEC3"
		},
		{
			"bufferView":1,
			"componentType":5126,
			"count":22644,
			"type":"VEC3"
		},
		{
			"bufferView":2,
			"componentType":5126,
			"count":22644,
			"type":"VEC2"
		},
		{
			"bufferView":3,
			"componentType":5121,
			"count":22644,
			"normalized":true,
			"type":"VEC4"
		},
		{
			"bufferView":4,
			"componentType":5123,
			"count":22644,
			"normalized":true,
			"type":"VEC4"
		},
		{
			"bufferView":5,
			"componentType":5123,
			"count":100764,
			"type":"SCALAR"
		},
		{
			"bufferView":6,
			"componentType":5126,
			"count":375,
			"max":[
				0.0073508620262146,
				0.1593329906463623,
				0.7846572399139404
			],
			"min":[
				-0.0036424994468688965,
				-0.052196621894836426,
				-0.2891765832901001
			],
			"type":"VEC3"
		},
		{
			"bufferView":7,
			"componentType":5126,
			"count":375,
			"type":"VEC3"
		},
		{
			"bufferView":8,
			"componentType":5126,
			"count":375,
			"type":"VEC2"
		},
		{
			"bufferView":9,
			"componentType":5121,
			"count":375,
			"normalized":true,
			"type":"VEC4"
		},
		{
			"bufferView":10,
			"componentType":5123,
			"count":375,
			"normalized":true,
			"type":"VEC4"
		},
		{
			"bufferView":11,
			"componentType":5123,
			"count":1515,
			"type":"SCALAR"
		}
	],
	"bufferViews":[
		{
			"buffer":0,
			"byteLength":271728,
			"byteOffset":0,
			"target":34962
		},
		{
			"buffer":0,
			"byteLength":271728,
			"byteOffset":271728,
			"target":34962
		},
		{
			"buffer":0,
			"byteLength":181152,
			"byteOffset":543456,
			"target":34962
		},
		{
			"buffer":0,
			"byteLength":90576,
			"byteOffset":724608,
			"target":34962
		},
		{
			"buffer":0,
			"byteLength":181152,
			"byteOffset":815184,
			"target":34962
		},
		{
			"buffer":0,
			"byteLength":201528,
			"byteOffset":996336,
			"target":34963
		},
		{
			"buffer":0,
			"byteLength":4500,
			"byteOffset":1197864,
			"target":34962
		},
		{
			"buffer":0,
			"byteLength":4500,
			"byteOffset":1202364,
			"target":34962
		},
		{
			"buffer":0,
			"byteLength":3000,
			"byteOffset":1206864,
			"target":34962
		},
		{
			"buffer":0,
			"byteLength":1500,
			"byteOffset":1209864,
			"target":34962
		},
		{
			"buffer":0,
			"byteLength":3000,
			"byteOffset":1211364,
			"target":34962
		},
		{
			"buffer":0,
			"byteLength":3030,
			"byteOffset":1214364,
			"target":34963
		}
	],
	"samplers":[
		{
			"magFilter":9729,
			"minFilter":9987
		}
	],
	"buffers":[
		{
			"byteLength":1217396,
			"uri":"katana_p.bin"
		}
	]
}
