{
	"asset":
	{
		"version": "2.0",
		"generator": "Unreal Engine 5.5.4"
	},
	"scene": 0,
	"accessors": [
		{
			"bufferView": 0,
			"count": 2448,
			"type": "SCALAR",
			"componentType": 5123
		},
		{
			"bufferView": 1,
			"count": 2448,
			"type": "VEC3",
			"componentType": 5126,
			"min": [ -1.93873453, 0.0174180381, -1.90134668 ],
			"max": [ 2.20908117, 0.223054752, 1.34674633 ]
		},
		{
			"bufferView": 2,
			"count": 2448,
			"type": "VEC3",
			"componentType": 5126
		},
		{
			"bufferView": 3,
			"count": 2448,
			"type": "VEC2",
			"componentType": 5126
		}
	],
	"buffers": [
		{
			"uri": "SM_Tarpaulin3.bin",
			"byteLength": 83232
		}
	],
	"bufferViews": [
		{
			"buffer": 0,
			"byteLength": 4896,
			"target": 34963
		},
		{
			"buffer": 0,
			"byteLength": 29376,
			"byteOffset": 4896,
			"target": 34962
		},
		{
			"buffer": 0,
			"byteLength": 29376,
			"byteOffset": 34272,
			"target": 34962
		},
		{
			"buffer": 0,
			"byteLength": 19584,
			"byteOffset": 63648,
			"target": 34962
		}
	],
	"images": [
		{
			"uri": "T_Tarpaulin_D.png"
		},
		{
			"uri": "T_Tarpaulin_ORM.png"
		},
		{
			"uri": "T_Tarpaulin_N.png"
		}
	],
	"materials": [
		{
			"name": "MI_tarpaulin",
			"pbrMetallicRoughness":
			{
				"baseColorTexture":
				{
					"index": 0
				},
				"metallicRoughnessTexture":
				{
					"index": 1
				}
			},
			"normalTexture":
			{
				"index": 2
			},
			"occlusionTexture":
			{
				"index": 1
			},
			"doubleSided": true
		}
	],
	"meshes": [
		{
			"name": "SM_Tarpaulin3",
			"primitives": [
				{
					"attributes":
					{
						"POSITION": 1,
						"NORMAL": 2,
						"TEXCOORD_0": 3
					},
					"indices": 0,
					"material": 0
				}
			]
		}
	],
	"nodes": [
		{
			"name": "tarpaulins_tarp3_2",
			"rotation": [ -0, -0.999048293, 0, 0.0436199233 ],
			"mesh": 0
		}
	],
	"samplers": [
		{
			"minFilter": 9987,
			"magFilter": 9729
		}
	],
	"scenes": [
		{
			"name": "proto",
			"nodes": [ 0 ]
		}
	],
	"textures": [
		{
			"name": "T_Tarpaulin_D",
			"sampler": 0,
			"source": 0
		},
		{
			"name": "T_Tarpaulin_ORM",
			"sampler": 0,
			"source": 1
		},
		{
			"name": "T_Tarpaulin_N",
			"sampler": 0,
			"source": 2
		}
	]
}